<?xml version="1.0" encoding="UTF-8" standalone="no"?>
<svg width="30px" height="40px" viewBox="0 0 30 40" version="1.1" xmlns="http://www.w3.org/2000/svg" xmlns:xlink="http://www.w3.org/1999/xlink">
    <!-- Generator: Sketch 49 (51002) - http://www.bohemiancoding.com/sketch -->
    <title>logo-csust</title>
    <desc>Created with Sketch.</desc>
    <defs></defs>
    <g id="Page-1" stroke="none" stroke-width="1" fill="none" fill-rule="evenodd">
        <g id="login" transform="translate(-945.000000, -860.000000)" fill-rule="nonzero">
            <g id="logo-csust" transform="translate(945.000000, 860.000000)">
                <path d="M15.0017928,0.013502058 C6.94390348,0.013502058 0.325408301,6.41121382 0.0119521912,14.5033033 L0,39.8798799 L30,39.8798799 L30,14.5033033 C29.6781774,6.41121382 23.0596822,0.013502058 15.0017928,0.013502058 Z" id="Shape" fill="#2743FF"></path>
                <ellipse id="Oval" fill="#FFFFFF" transform="translate(14.926016, 15.043350) rotate(-89.270000) translate(-14.926016, -15.043350) " cx="14.9260162" cy="15.0433503" rx="10.3541833" ry="10.406006"></ellipse>
                <path d="M13.8406375,12.4696697 C13.8406375,12.4696697 22.0804781,9.89429429 23.6282869,11.5723724 C25.3804781,13.4738739 22.5609562,17.0126126 20.2936255,19.1255255 C17.7908367,21.4570571 13.8645418,24.4216216 13.8645418,24.4216216 L12.3525896,22.8540541 C12.3525896,22.8540541 18.3956175,19.3705706 20.9414343,16.3099099 C23.2326693,13.5567568 22.6733068,12.0600601 20.8780876,11.8582583 C18.4864542,11.587988 13.8406375,12.4696697 13.8406375,12.4696697 Z" id="Shape" fill="#2743FF"></path>
                <path d="M13.2920319,12.7807808 C13.2920319,12.7807808 20.0366534,11.4930931 21.4482072,12.3903904 C22.9350598,13.3357357 21.0011952,15.981982 18.3525896,18.036036 C16.336255,19.5975976 11.8601594,22.3795796 11.8601594,22.3795796 L10.3864542,20.9381381 C10.3864542,20.9381381 15.8665339,18.4600601 18.3047809,16.1897898 C20.4968127,14.1477477 20.9115538,13.015015 18.9478088,12.793994 C17.0916335,12.5885886 13.2920319,12.7807808 13.2920319,12.7807808 Z" id="Shape" fill="#2743FF"></path>
                <polygon id="Shape" fill="#2743FF" points="15.0131474 12.7027027 13.4533865 16.2486486 14.989243 16.2486486 14.9916335 17.5447447 16.5406375 13.9363363 15.010757 13.9399399"></polygon>
                <path d="M16.1593625,17.7705706 C16.1593625,17.7705706 7.91832669,20.3447447 6.37171315,18.6666667 C4.61952191,16.7651652 7.43784861,13.2276276 9.7063745,11.1147147 C12.2079681,8.78198198 16.1354582,5.81861862 16.1354582,5.81861862 L17.6474104,7.38618619 C17.6474104,7.38618619 11.6031873,10.8708709 9.05737052,13.9339339 C6.76733068,16.6870871 7.32549801,18.1825826 9.12071713,18.3855856 C11.5123506,18.6510511 16.1593625,17.7705706 16.1593625,17.7705706 Z" id="Shape" fill="#2743FF"></path>
                <path d="M16.7067729,17.4582583 C16.7067729,17.4582583 9.96215139,18.7459459 8.55059761,17.8486486 C7.06374502,16.9033033 8.99880478,14.2570571 11.6462151,12.203003 C13.6625498,10.6414414 18.1386454,7.85945946 18.1386454,7.85945946 L19.6135458,9.3009009 C19.6135458,9.3009009 14.1334661,11.7717718 11.6952191,14.0456456 C9.50199203,16.0876877 9.087251,17.2216216 11.050996,17.4426426 C12.9083665,17.6576577 16.7067729,17.4582583 16.7067729,17.4582583 Z" id="Shape" fill="#2743FF"></path>
                <path d="M3.08844622,17.6312312 L3.15537849,17.3801802 C3.32675534,17.3577148 3.50099525,17.3770801 3.66334661,17.4366366 C3.77699783,17.4827849 3.86094452,17.5819608 3.88804781,17.7021021 C3.91972508,17.8689666 3.85209206,18.0391298 3.71474104,18.1381381 C3.51801092,18.2995859 3.28422226,18.4090131 3.03466135,18.4564565 C2.78107459,18.5311668 2.51320265,18.5427104 2.25418327,18.4900901 C2.08297256,18.4619352 1.9433051,18.337009 1.89561753,18.1693694 C1.86291156,18.024874 1.9126231,17.8740678 2.0247012,17.7777778 C2.1196582,17.6902035 2.23041565,17.6217039 2.35099602,17.575976 L2.49681275,17.7801802 C2.41449779,17.8081342 2.34051062,17.8564665 2.28167331,17.9207207 C2.23661993,17.9674442 2.2177824,18.0337055 2.2314741,18.0972973 C2.25945897,18.1887882 2.33881355,18.2548548 2.43346614,18.2654655 C2.60657386,18.2892828 2.78276584,18.2749366 2.9498008,18.2234234 C3.12925329,18.1911275 3.29990388,18.121134 3.45059761,18.018018 C3.53038638,17.9662791 3.57213896,17.8719835 3.55697211,17.7777778 C3.53853861,17.712048 3.48658778,17.6612111 3.42071713,17.6444444 C3.31221277,17.6159525 3.19885137,17.6114445 3.08844622,17.6312312 Z" id="Shape" fill="#FFFFFF"></path>
                <polygon id="Shape" fill="#FFFFFF" points="3.72191235 17.1183183 1.76414343 17.3957958 1.73187251 17.1615616 2.50278884 17.0534535 2.43824701 16.5957958 1.66733068 16.7051051 1.63505976 16.4720721 3.59163347 16.1945946 3.6250996 16.4276276 2.76932271 16.5477477 2.83266932 17.0054054 3.68844622 16.8852853"></polygon>
                <path d="M3.53067729,14.9813814 L3.54143426,15.2372372 L3.09800797,15.3573574 L3.11832669,15.8222222 L3.57131474,15.8990991 L3.58207171,16.1489489 L1.587251,15.7825826 L1.57649402,15.5339339 L3.53067729,14.9813814 Z M2.76812749,15.4498498 L2.04262948,15.6432432 L2.78247012,15.7633634 L2.76812749,15.4498498 Z" id="Shape" fill="#FFFFFF"></path>
                <polygon id="Shape" fill="#FFFFFF" points="3.53545817 14.9309309 1.56215139 14.83003 1.57410359 14.6006006 2.91633466 14.1921922 1.60159363 14.1237237 1.6123506 13.9051051 3.58685259 14.0072072 3.5749004 14.2474474 2.26015936 14.6510511 3.54741036 14.7171171"></polygon>
                <path d="M2.95816733,13.193994 L2.62948207,13.1435435 L2.70478088,12.6426426 L3.48286853,12.7627628 C3.55969988,12.8284119 3.62095489,12.910494 3.66215139,13.003003 C3.70780653,13.0942669 3.72489097,13.1972866 3.71115538,13.2984985 C3.69433387,13.4166713 3.63104042,13.5231211 3.53545817,13.593994 C3.41832243,13.6779377 3.28082152,13.7285655 3.1374502,13.7405405 C2.96089974,13.7613757 2.78233822,13.7577381 2.60677291,13.7297297 C2.42300793,13.7051038 2.24405674,13.6524459 2.07609562,13.5735736 C1.94235953,13.5141519 1.82772214,13.4184892 1.74501992,13.2972973 C1.69032425,13.2110532 1.6702465,13.1071567 1.68884462,13.0066066 C1.70252788,12.8756744 1.77817461,12.7594003 1.89203187,12.6942943 C2.02924474,12.6238632 2.18294815,12.5923043 2.33665339,12.603003 L2.37609562,12.8432432 C2.29293813,12.8413681 2.21067419,12.8607969 2.13705179,12.8996997 C2.07856587,12.9318751 2.03834951,12.9896146 2.02828685,13.0558559 C2.01417074,13.1615818 2.06214927,13.2659776 2.15139442,13.3237237 C2.29503929,13.4168988 2.45916036,13.4733916 2.62948207,13.4882883 C2.80653956,13.5254248 2.9897079,13.5213157 3.16494024,13.4762763 C3.27039862,13.4532778 3.35241951,13.3699044 3.37410359,13.2636637 C3.38141348,13.2105233 3.37223088,13.1564104 3.34780876,13.1087087 C3.32344895,13.0551623 3.28986475,13.0063638 3.24860558,12.9645646 L3.00119522,12.9273273 L2.95816733,13.193994 Z" id="Shape" fill="#FFFFFF"></path>
                <path d="M3.14581673,12.5693694 L3.16494024,12.3387387 C3.26407569,12.358665 3.36650992,12.3545471 3.46374502,12.3267267 C3.52650846,12.3024897 3.5741778,12.2498612 3.59230697,12.1847901 C3.61043614,12.119719 3.5968912,12.0498647 3.55577689,11.9963964 C3.51042239,11.9446535 3.45033891,11.9081714 3.38366534,11.8918919 C3.34435787,11.882628 3.30345089,11.882628 3.26414343,11.8918919 C3.22419765,11.9014808 3.18799797,11.9228075 3.16015936,11.9531532 C3.13864542,11.975976 3.09442231,12.03003 3.0310757,12.1153153 C2.96891646,12.208809 2.88081014,12.2819023 2.77768924,12.3255255 C2.64440559,12.3689993 2.50124496,12.3715088 2.36653386,12.3327327 C2.27222994,12.3094299 2.18306323,12.2686967 2.10358566,12.2126126 C2.0333379,12.1662572 1.97808853,12.1002942 1.94462151,12.0228228 C1.9154772,11.9459777 1.91170574,11.8617479 1.93386454,11.7825826 C1.95813404,11.6528304 2.04915684,11.5458007 2.17290837,11.5015015 C2.31921474,11.4551149 2.47580493,11.4526103 2.62350598,11.4942943 L2.58286853,11.7261261 C2.50710422,11.7100616 2.42850722,11.7137836 2.35458167,11.7369369 C2.30195466,11.7603658 2.26433558,11.8085251 2.25418327,11.8654655 C2.23636624,11.9247967 2.24792153,11.9891155 2.28525896,12.0384384 C2.31306585,12.0727425 2.35198907,12.0961283 2.39521912,12.1045045 C2.4342015,12.1162581 2.47575866,12.1162581 2.51474104,12.1045045 C2.58903306,12.0617252 2.6511708,12.0005172 2.69521912,11.9267267 C2.74964005,11.8452854 2.81708317,11.773446 2.89482072,11.7141141 C2.96288857,11.6708293 3.04042132,11.6448557 3.12071713,11.6384384 C3.22729471,11.6305986 3.33442106,11.6411617 3.4374502,11.6696697 C3.54287641,11.6951574 3.64287707,11.7395081 3.73266932,11.8006006 C3.81070057,11.8500006 3.87196855,11.9220472 3.90836653,12.0072072 C3.93877417,12.0921616 3.94211599,12.1845218 3.91792829,12.2714715 C3.89065452,12.4046397 3.79581305,12.5136376 3.66812749,12.5585586 C3.4979466,12.6079137 3.31787528,12.6116409 3.14581673,12.5693694 Z" id="Shape" fill="#FFFFFF"></path>
                <polygon id="Shape" fill="#FFFFFF" points="4.0314741 11.6912913 2.16573705 11.0378378 2.24223108 10.8108108 2.97729084 11.0678679 3.12788845 10.6318318 2.39043825 10.3795796 2.46812749 10.1573574 4.33625498 10.8108108 4.25976096 11.0342342 3.44342629 10.7483483 3.29282869 11.1831832 4.10916335 11.4678679"></polygon>
                <path d="M4.83227092,9.7009009 L4.72709163,9.93393393 L4.27649402,9.83903904 L4.08286853,10.2630631 L4.45219124,10.5381381 L4.34820717,10.7651652 L2.73944223,9.52552553 L2.84223108,9.2996997 L4.83227092,9.7009009 Z M3.94422311,9.76816817 L3.20916335,9.60960961 L3.80677291,10.0588589 L3.94422311,9.76816817 Z" id="Shape" fill="#FFFFFF"></path>
                <path d="M3.58565737,7.91231231 L3.70517928,7.71651652 L4.59681275,8.31711712 C4.73784861,8.41161161 4.8310757,8.47047047 4.87649402,8.49369369 C4.93823225,8.52796517 5.00798502,8.54497213 5.07848606,8.54294294 C5.13888791,8.53888012 5.19362951,8.50578132 5.22549801,8.45405405 C5.26397355,8.40811226 5.27658031,8.34566797 5.25896414,8.28828829 C5.23633983,8.23123732 5.19925496,8.18112922 5.15139442,8.14294294 C5.09880478,8.0996997 5.00677291,8.03363363 4.87768924,7.94714715 L3.96693227,7.33693694 L4.09721116,7.14114114 L4.96135458,7.72012012 C5.10290578,7.81086714 5.23899939,7.9099386 5.3689243,8.01681682 C5.43531422,8.07210539 5.49189334,8.13830935 5.53625498,8.21261261 C5.57251598,8.27466397 5.59265634,8.34488842 5.59482072,8.41681682 C5.59388615,8.49612463 5.56794037,8.57308981 5.52071713,8.63663664 C5.47701692,8.71482003 5.40899499,8.77643058 5.32709163,8.81201201 C5.2570879,8.83555744 5.18245662,8.84173916 5.10956175,8.83003003 C5.03356406,8.8194121 4.9597322,8.79670566 4.89083665,8.76276276 C4.74266116,8.68518111 4.59936382,8.59853169 4.46175299,8.5033033 L3.58565737,7.91231231 Z" id="Shape" fill="#FFFFFF"></path>
                <polygon id="Shape" fill="#FFFFFF" points="5.8374502 8.1021021 4.30278884 6.84684685 4.44621514 6.66906907 5.77051793 7.13513514 4.74621514 6.29429429 4.88486056 6.12612613 6.41832669 7.38378378 6.27011952 7.56756757 4.97450199 7.11591592 5.97609562 7.92792793"></polygon>
                <polygon id="Shape" fill="#FFFFFF" points="6.54262948 7.25765766 5.09282869 5.90750751 5.25896414 5.73453453 6.70159363 7.08708709"></polygon>
                <polygon id="Shape" fill="#FFFFFF" points="7.02071713 6.75915916 5.35697211 5.60960961 5.54103586 5.43303303 6.7625498 6.29309309 5.95936255 5.03183183 6.13984064 4.86006006 7.20239044 6.58498498"></polygon>
                <polygon id="Shape" fill="#FFFFFF" points="7.53944223 6.27147147 6.30717131 4.71951952 6.98007968 4.18018018 7.18804781 4.44444444 6.69920319 4.83723724 6.97171315 5.18198198 7.42709163 4.82162162 7.63505976 5.08228228 7.17968127 5.44264264 7.51553785 5.86426426 8.02231076 5.45825826 8.23027888 5.72012012"></polygon>
                <path d="M8.32828685,5.64564565 L7.24302789,3.98678679 L7.64940239,3.71411411 C7.72384922,3.6569551 7.81216603,3.6208709 7.90517928,3.60960961 C7.98444036,3.61339171 8.06034579,3.64289433 8.12151394,3.69369369 C8.2068407,3.75995781 8.27935446,3.84138429 8.33545817,3.93393393 C8.40935329,4.03767098 8.456572,4.1581655 8.47290837,4.28468468 C8.48688048,4.38618238 8.45536422,4.48868298 8.38685259,4.56456456 C8.45514573,4.57833675 8.52114442,4.60179457 8.58286853,4.63423423 C8.68243187,4.69346076 8.77823427,4.75885222 8.86972112,4.83003003 L9.20318725,5.07027027 L8.96414343,5.22402402 L8.58645418,4.95735736 C8.50204021,4.89414119 8.41426062,4.8355959 8.32350598,4.78198198 C8.29209175,4.76276235 8.25627811,4.75200586 8.21952191,4.75075075 C8.17909674,4.75656778 8.14082841,4.77269611 8.10836653,4.7975976 L8.0689243,4.82402402 L8.52191235,5.51711712 L8.32828685,5.64564565 Z M7.89800797,4.56456456 L8.04262948,4.46966967 C8.10611908,4.43288382 8.16143908,4.38341895 8.20517928,4.32432432 C8.22016583,4.29076425 8.22353224,4.25312551 8.21474104,4.21741742 C8.20189615,4.16967896 8.18086378,4.12455825 8.15258964,4.08408408 C8.1223559,4.03543091 8.0814786,3.99434903 8.03306773,3.96396396 C7.99738633,3.94152713 7.95374929,3.93582592 7.91354582,3.94834835 C7.86227975,3.97402374 7.81312151,4.00374663 7.76653386,4.03723724 L7.61354582,4.13813814 L7.89800797,4.56456456 Z" id="Shape" fill="#FFFFFF"></path>
                <path d="M8.89123506,4.50930931 L9.07410359,4.36756757 C9.12613956,4.45468795 9.19777835,4.52833095 9.28326693,4.58258258 C9.34305783,4.61616756 9.41590631,4.61616756 9.47569721,4.58258258 C9.53695602,4.55477754 9.57948355,4.49703255 9.58804781,4.43003003 C9.59606748,4.36182032 9.58225177,4.29281679 9.54860558,4.23303303 C9.53025863,4.19618964 9.5036668,4.16411973 9.47091633,4.13933934 C9.43578773,4.11509906 9.3939988,4.10249963 9.35139442,4.1033033 C9.28271056,4.10381265 9.21409657,4.1078218 9.14581673,4.11531532 C9.03510951,4.13282577 8.92172133,4.11606758 8.82071713,4.06726727 C8.69884879,3.99732533 8.60060695,3.89231634 8.53864542,3.76576577 C8.49249832,3.68078573 8.46250474,3.58791057 8.4501992,3.49189189 C8.43688295,3.40727175 8.44938404,3.32058248 8.48605578,3.24324324 C8.58879496,3.05002481 8.82372284,2.97097223 9.02151394,3.06306306 C9.15346426,3.14109188 9.26014135,3.25581183 9.32868526,3.39339339 L9.13027888,3.52072072 C9.09204715,3.45549148 9.03770321,3.4012893 8.97250996,3.36336336 C8.92036376,3.33932859 8.85966554,3.34339539 8.81115538,3.37417417 C8.75483057,3.40020654 8.71468109,3.45221376 8.70358566,3.51351351 C8.69605423,3.55562611 8.7036805,3.59905793 8.7250996,3.63603604 C8.74409945,3.67449278 8.77461276,3.70599898 8.8123506,3.72612613 C8.89388447,3.75209286 8.98060432,3.75704947 9.06454183,3.74054054 C9.16063862,3.7267045 9.25833873,3.7287332 9.35378486,3.74654655 C9.43184189,3.76888422 9.50325254,3.81013023 9.56175299,3.86666667 C9.71712944,4.01855387 9.81907969,4.21715017 9.85219124,4.43243243 C9.86819367,4.52357625 9.85609984,4.61745822 9.81752988,4.7015015 C9.77603996,4.78127516 9.71030096,4.84565993 9.62988048,4.88528529 C9.51321533,4.95489804 9.36858591,4.95718347 9.2498008,4.89129129 C9.0990786,4.7976917 8.97543815,4.66597686 8.89123506,4.50930931 Z" id="Shape" fill="#FFFFFF"></path>
                <polygon id="Shape" fill="#FFFFFF" points="10.1438247 4.58498498 9.31912351 2.78318318 9.53187251 2.68468468 10.3565737 4.48648649"></polygon>
                <polygon id="Shape" fill="#FFFFFF" points="10.7486056 4.32432432 10.150996 2.78798799 9.82948207 2.90810811 9.70996016 2.5957958 10.5681275 2.25705706 10.6876494 2.56936937 10.3673307 2.6954955 10.9649402 4.23183183"></polygon>
                <polygon id="Shape" fill="#FFFFFF" points="11.650996 3.9951952 11.4119522 3.19399399 10.6768924 2.21501502 10.9398406 2.13573574 11.4262948 2.80960961 11.4573705 1.97957958 11.7131474 1.9015015 11.6330677 3.12912913 11.8721116 3.92792793"></polygon>
                <path d="M12.9083665,2.67027027 C12.882826,2.50089756 12.8788098,2.32894913 12.8964143,2.15855856 C12.9078181,2.0609183 12.9319285,1.96520543 12.9681275,1.87387387 C12.9960488,1.80194121 13.0383549,1.73652908 13.0924303,1.68168168 C13.1580787,1.61996179 13.2420452,1.58156582 13.3314741,1.57237237 C13.5082569,1.5531401 13.6803022,1.63772401 13.7737052,1.78978979 C13.9169228,2.0080744 14.0024789,2.25941332 14.0223108,2.52012012 C14.0687472,2.77621946 14.0494125,3.03999067 13.9661355,3.28648649 C13.9178021,3.45907792 13.7717429,3.58609159 13.5948477,3.60935994 C13.4179524,3.63262828 13.2442881,3.54767021 13.1533865,3.39339339 C13.0115348,3.17737234 12.9271745,2.92840128 12.9083665,2.67027027 Z M13.1474104,2.62582583 C13.160095,2.80071077 13.2133051,2.9701898 13.3027888,3.12072072 C13.3511201,3.21391008 13.4494029,3.26988241 13.5537849,3.26366366 C13.647012,3.25165165 13.7151394,3.18558559 13.7605578,3.06306306 C13.808234,2.89176817 13.8160047,2.71173756 13.7832669,2.53693694 C13.7691653,2.36198961 13.7151819,2.1926525 13.625498,2.04204204 C13.5859965,1.93773995 13.4802269,1.87451139 13.3701751,1.88941123 C13.2601232,1.90431107 13.1747729,1.99341521 13.1641434,2.1045045 C13.1182899,2.27460407 13.1125603,2.45310989 13.1474104,2.62582583 Z" id="Shape" fill="#FFFFFF"></path>
                <polygon id="Shape" fill="#FFFFFF" points="14.2517928 3.4978979 14.1788845 1.51351351 14.9749004 1.48348348 14.9868526 1.81981982 14.4262948 1.84024024 14.4430279 2.30990991 14.9211155 2.29189189 14.9330677 2.62822823 14.4549801 2.64624625 14.4860558 3.48708709"></polygon>
                <path d="M15.9836653,2.85645646 L16.2143426,2.84564565 C16.2071873,2.94704357 16.2239784,3.0487056 16.2633466,3.14234234 C16.2944278,3.20251261 16.3523362,3.24405233 16.4190579,3.25403934 C16.4857795,3.26402634 16.5532194,3.24124897 16.6003984,3.19279279 C16.6451079,3.14129037 16.6726878,3.07703521 16.6792829,3.00900901 C16.6851728,2.96875739 16.6819035,2.92768749 16.6697211,2.88888889 C16.6548368,2.85062521 16.6290619,2.81761863 16.5956175,2.79399399 C16.5388951,2.755016 16.4802551,2.71893425 16.4199203,2.68588589 C16.3199409,2.63522015 16.2368592,2.55631501 16.1808765,2.45885886 C16.1217599,2.33149066 16.1009874,2.18953062 16.1211155,2.05045045 C16.1314728,1.95389098 16.1598573,1.86016083 16.2047809,1.77417417 C16.2416765,1.69684363 16.3007957,1.6324075 16.374502,1.58918919 C16.447412,1.54912935 16.5314323,1.53435222 16.6135458,1.54714715 C16.7443776,1.55467256 16.8613649,1.63152956 16.9207171,1.74894895 C16.9853758,1.88873835 17.007816,2.04451801 16.985259,2.196997 L16.7462151,2.18618619 C16.7525118,2.10887853 16.7393593,2.03122095 16.7079681,1.96036036 C16.6783467,1.9105253 16.625827,1.87894596 16.5681275,1.87627628 C16.5071398,1.8658367 16.4448771,1.88550291 16.4007968,1.92912913 C16.3699602,1.96172837 16.3517324,2.0043308 16.3494024,2.04924925 C16.3436988,2.09043689 16.3507952,2.1323897 16.3697211,2.16936937 C16.4215715,2.23782062 16.4898298,2.2919567 16.5681275,2.32672673 C16.6569464,2.36990919 16.7377866,2.42799926 16.8071713,2.4984985 C16.858355,2.56083853 16.894003,2.63455033 16.9111554,2.71351351 C16.9324218,2.81871946 16.9352531,2.92684859 16.9195219,3.03303303 C16.9083753,3.14158881 16.8771634,3.24709958 16.82749,3.34414414 C16.789017,3.42858335 16.7255787,3.49905031 16.6458167,3.54594595 C16.5663382,3.5870089 16.4759635,3.60172624 16.3876494,3.58798799 C16.2524079,3.57833429 16.1323592,3.49744426 16.0721116,3.37537538 C15.9977295,3.21323108 15.9672212,3.03423681 15.9836653,2.85645646 Z" id="Shape" fill="#FFFFFF"></path>
                <path d="M17.8410359,3.06786787 L18.038247,3.23603604 C17.9848473,3.40130348 17.8921254,3.55097827 17.7681275,3.67207207 C17.6784584,3.75537395 17.5539801,3.78945173 17.4346614,3.76336336 C17.2721271,3.71960042 17.1489758,3.58602471 17.1179283,3.41981982 C17.0580568,3.17171301 17.0601097,2.91258275 17.1239044,2.66546547 C17.1657604,2.40391735 17.2703683,2.15654922 17.4286853,1.94474474 C17.5273157,1.80195875 17.6992195,1.72938846 17.8697211,1.75855856 C18.0135815,1.79022852 18.1281571,1.89936581 18.1673307,2.04204204 C18.2047272,2.16606609 18.2185139,2.29606577 18.2079681,2.42522523 L17.961753,2.46966967 C17.9717282,2.38241957 17.9598122,2.29404787 17.9270916,2.21261261 C17.9046362,2.15211058 17.8534498,2.10698554 17.7908367,2.09249249 C17.6960793,2.07821657 17.6019957,2.12218439 17.5517928,2.2042042 C17.4561085,2.35105724 17.393306,2.5170461 17.3677291,2.69069069 C17.3191504,2.86656545 17.3081526,3.05078063 17.3354582,3.23123123 C17.3653386,3.35135135 17.4215139,3.41261261 17.5039841,3.43063063 C17.5707528,3.44137117 17.6382599,3.41632769 17.6820717,3.36456456 C17.755696,3.27832092 17.80992,3.17711524 17.8410359,3.06786787 Z" id="Shape" fill="#FFFFFF"></path>
                <polygon id="Shape" fill="#FFFFFF" points="18.0370518 3.87387387 18.5701195 1.96036036 18.7948207 2.02402402 18.2629482 3.93633634"></polygon>
                <polygon id="Shape" fill="#FFFFFF" points="18.4195219 3.97597598 19.0661355 2.0996997 19.8800797 2.38198198 19.7701195 2.7003003 19.1784861 2.49369369 19.0350598 2.91051051 19.5860558 3.1015015 19.4820717 3.41861862 18.9322709 3.22642643 18.7553785 3.73693694 19.3625498 3.95075075 19.2537849 4.26666667"></polygon>
                <polygon id="Shape" fill="#FFFFFF" points="19.3685259 4.31231231 20.1812749 2.5021021 20.389243 2.5957958 20.2792829 4.0012012 20.8231076 2.79279279 21.0215139 2.88288288 20.2075697 4.69309309 19.9936255 4.5957958 20.0976096 3.22162162 19.5669323 4.4024024"></polygon>
                <path d="M21.3609562,4.5033033 L21.4972112,4.72312312 C21.3965895,4.86444517 21.2632758,4.9790504 21.1087649,5.05705706 C20.9978023,5.10848156 20.8688438,5.10220316 20.7633466,5.04024024 C20.6217596,4.9489357 20.5450255,4.78394953 20.5661355,4.61621622 C20.584777,4.35970292 20.666951,4.11194702 20.8051793,3.8954955 C20.9245448,3.65846143 21.099748,3.45434053 21.3155378,3.3009009 C21.4529174,3.19413332 21.6394848,3.17725822 21.7936255,3.25765766 C21.9191697,3.33301222 21.9938543,3.47115659 21.9884462,3.61801802 C21.9861862,3.7471248 21.9598335,3.87465816 21.910757,3.99399399 L21.6561753,3.96396396 C21.6929764,3.88445604 21.7086256,3.79671343 21.7015936,3.70930931 C21.6985541,3.64452002 21.6635944,3.58551174 21.6083665,3.55195195 C21.5226184,3.5098979 21.420199,3.52311852 21.3478088,3.58558559 C21.2123511,3.69593539 21.1022615,3.83444109 21.0250996,3.99159159 C20.9254366,4.14448475 20.8590461,4.31681783 20.8302789,4.4972973 C20.8136211,4.58999831 20.8524085,4.68392976 20.9294821,4.73753754 C20.9898213,4.76884274 21.0621535,4.76564237 21.1195219,4.72912913 C21.215359,4.67236257 21.2977459,4.59530186 21.3609562,4.5033033 Z" id="Shape" fill="#FFFFFF"></path>
                <polygon id="Shape" fill="#FFFFFF" points="21.3023904 5.32132132 22.4330677 3.69249249 23.1394422 4.18738739 22.9482072 4.46246246 22.4342629 4.1021021 22.1832669 4.46246246 22.6613546 4.7975976 22.4701195 5.07267267 21.9920319 4.73873874 21.6836653 5.18198198 22.2155378 5.55435435 22.025498 5.82822823"></polygon>
                <path d="M23.6450199,6.96696697 L23.3438247,7.08708709 C23.335753,6.98806312 23.3430106,6.88838006 23.3653386,6.79159159 C23.2941912,6.80933714 23.2202311,6.8126044 23.1478088,6.8012012 C23.0827427,6.78727937 23.023256,6.7542516 22.9768924,6.70630631 C22.8737922,6.60990591 22.8384389,6.46067896 22.887251,6.32792793 C22.9249252,6.2048551 22.9922569,6.09303665 23.0832669,6.0024024 C23.1635366,5.91655959 23.2608583,5.84862549 23.3689243,5.803003 C23.4722082,5.76050292 23.5839368,5.74281658 23.6952191,5.75135135 C23.7196502,5.67290774 23.7512593,5.59690735 23.7896414,5.52432432 C23.8216649,5.46268769 23.8618733,5.40571002 23.9091633,5.35495495 C23.9816709,5.2747872 24.0767053,5.2186541 24.1816733,5.19399399 C24.2757626,5.17270765 24.3740845,5.20230632 24.4410359,5.27207207 C24.5115334,5.33818789 24.5412088,5.43729522 24.5187251,5.53153153 C24.4941953,5.64205061 24.4376313,5.74278704 24.3561753,5.82102102 C24.3025676,5.87759906 24.2389295,5.9236315 24.1685259,5.95675676 C24.0754427,5.99290407 23.9766758,6.01202407 23.8768924,6.01321321 L23.7394422,6.38798799 C23.8070269,6.35104718 23.8713976,6.30845437 23.9318725,6.26066066 L24.0239044,6.45045045 C23.9243028,6.52332332 23.8501992,6.57497497 23.8015936,6.60540541 C23.75911,6.63148304 23.714766,6.65436825 23.6689243,6.67387387 C23.6583712,6.72701596 23.6511855,6.78077772 23.6474104,6.83483483 C23.6423611,6.87869738 23.6415606,6.92294895 23.6450199,6.96696697 Z M23.6091633,6.00600601 C23.5427731,6.00179757 23.4763525,6.01374719 23.4155378,6.04084084 C23.3556158,6.06641611 23.3015224,6.10402138 23.2565737,6.15135135 C23.2059011,6.19947705 23.169142,6.26049549 23.1501992,6.32792793 C23.1344269,6.37915155 23.1487659,6.4349351 23.187251,6.47207207 C23.2136854,6.49752008 23.2476937,6.51355445 23.2840637,6.51771772 C23.3364325,6.52284062 23.3892781,6.51959726 23.4406375,6.50810811 L23.6091633,6.00600601 Z M23.9581673,5.76576577 L24.0549801,5.75135135 C24.118807,5.74482901 24.178591,5.71690298 24.2247012,5.67207207 C24.255927,5.6416229 24.2778964,5.60287981 24.2880478,5.56036036 C24.2974481,5.52553541 24.2873915,5.48832367 24.261753,5.46306306 C24.2380033,5.43832335 24.20268,5.42864151 24.1697211,5.43783784 C24.1334689,5.4456791 24.1005,5.46455286 24.0752988,5.49189189 C24.0365932,5.5374099 24.008789,5.59124193 23.9940239,5.64924925 L23.9581673,5.76576577 Z" id="Shape" fill="#FFFFFF"></path>
                <polygon id="Shape" fill="#FFFFFF" points="24.1948207 8.01201201 25.5095618 7.02222222 25.3027888 6.74594595 25.5705179 6.54414414 26.1239044 7.28648649 25.8561753 7.48828829 25.6505976 7.20720721 24.3358566 8.196997"></polygon>
                <polygon id="Shape" fill="#FFFFFF" points="24.5844622 8.54294294 26.2577689 7.49069069 26.7143426 8.22342342 26.4334661 8.40840841 26.1011952 7.87387387 25.7294821 8.11411411 26.0378486 8.61021021 25.7557769 8.78798799 25.4474104 8.29069069 24.9908367 8.57777778 25.3350598 9.13033033 25.0517928 9.30690691"></polygon>
                <path d="M26.0952191,9.73813814 L26.0880478,9.9975976 C25.9264605,10.0585841 25.7526432,10.079596 25.5812749,10.0588589 C25.4594776,10.0397542 25.3548628,9.96157428 25.3015936,9.84984985 C25.2338332,9.69518529 25.2608242,9.51512447 25.3709163,9.38738739 C25.5251638,9.18466107 25.7278406,9.02435233 25.9601594,8.92132132 C26.1889196,8.78877478 26.4468157,8.71531096 26.710757,8.70750751 C26.8840723,8.69672039 27.0479924,8.78751486 27.1314741,8.94054054 C27.1946511,9.07262839 27.1808939,9.22886312 27.0956175,9.34774775 C27.0235293,9.45504569 26.9313836,9.54724461 26.8243028,9.61921922 L26.6354582,9.45465465 C26.7092777,9.40789436 26.770454,9.34352341 26.8135458,9.26726727 C26.8463704,9.21159092 26.8495063,9.14315739 26.8219124,9.08468468 C26.7740251,8.9994371 26.6794593,8.95191755 26.5828685,8.96456456 C26.4103606,8.98319779 26.2439574,9.03935305 26.0952191,9.12912913 C25.9279239,9.20078627 25.7776172,9.30722351 25.6541833,9.44144144 C25.5887626,9.50987837 25.5695603,9.61060662 25.6051793,9.6984985 C25.6385355,9.75760086 25.7001508,9.79493718 25.7677291,9.796997 C25.8798302,9.80122175 25.9915229,9.78114754 26.0952191,9.73813814 Z" id="Shape" fill="#FFFFFF"></path>
                <polygon id="Shape" fill="#FFFFFF" points="25.598008 10.3831832 27.436255 9.66246246 27.5223108 9.88228228 26.798008 10.1681682 26.9665339 10.596997 27.6908367 10.3111111 27.7756972 10.5309309 25.9374502 11.2516517 25.8513944 11.0318318 26.6533865 10.7147147 26.4848606 10.2846847 25.6804781 10.603003"></polygon>
                <polygon id="Shape" fill="#FFFFFF" points="25.9912351 11.4114114 27.8904382 10.8624625 27.9537849 11.0822823 26.8159363 11.9087087 28.0876494 11.5399399 28.1474104 11.7501502 26.2482072 12.3003003 26.1824701 12.0732733 27.2916335 11.2624625 26.0533865 11.6228228"></polygon>
                <path d="M27.2378486,12.2366366 C27.4049068,12.2025342 27.5755609,12.1896206 27.7458167,12.1981982 C27.8432343,12.2040211 27.9393736,12.223426 28.0314741,12.2558559 C28.1068649,12.2802799 28.1758756,12.321319 28.2334661,12.375976 C28.2965356,12.4392094 28.33833,12.5206964 28.352988,12.609009 C28.3806139,12.7855161 28.3054003,12.9623596 28.1593625,13.0642643 C27.7249648,13.3516056 27.1928613,13.448757 26.6856574,13.3333333 C26.5119181,13.2933128 26.378441,13.153384 26.3459846,12.9772423 C26.3135282,12.8011006 26.3882965,12.6224149 26.536255,12.5225225 C26.7422117,12.3689734 26.9836448,12.2705941 27.2378486,12.2366366 Z M27.2940239,12.4768769 C27.1206971,12.4989161 26.9549155,12.5614468 26.8099602,12.6594595 C26.7123293,12.7060039 26.6579083,12.812585 26.6772137,12.9194372 C26.6965192,13.0262893 26.7847499,13.1068382 26.8924303,13.1159159 C27.0646596,13.1559441 27.2437069,13.1559441 27.4159363,13.1159159 C27.5867852,13.0936406 27.7503101,13.0324228 27.8940239,12.9369369 C27.9817177,12.8820851 28.028667,12.780167 28.0135458,12.6774775 C27.9898356,12.5751385 27.9082942,12.4964859 27.8055777,12.4768769 C27.6374586,12.4373699 27.4626775,12.4361387 27.2940239,12.4732733 L27.2940239,12.4768769 Z" id="Shape" fill="#FFFFFF"></path>
                <polygon id="Shape" fill="#FFFFFF" points="26.487251 13.6384384 28.4390438 13.4618619 28.4605578 13.7021021 26.8398406 13.8486486 26.8912351 14.4312312 26.5601594 14.4612613"></polygon>
                <path d="M27.5438247,14.5033033 C27.7139433,14.4998485 27.8838145,14.5180103 28.0494024,14.5573574 C28.1442428,14.5816053 28.235473,14.6183609 28.3207171,14.6666667 C28.3902721,14.70358 28.4510318,14.7552177 28.4988048,14.818018 C28.5505136,14.8913157 28.5777181,14.9792266 28.576494,15.0690691 C28.5716691,15.2475241 28.4658392,15.4075301 28.3039841,15.4810811 C27.8241574,15.6870635 27.2814203,15.6870635 26.8015936,15.4810811 C26.6376219,15.4101117 26.5313923,15.2478931 26.5313923,15.0684685 C26.5313923,14.8890438 26.6376219,14.7268253 26.8015936,14.6558559 C27.0318882,14.5418628 27.2874899,14.4893284 27.5438247,14.5033033 Z M27.5557769,14.7435435 C27.3814361,14.7340842 27.207257,14.764903 27.0466135,14.8336336 C26.9425123,14.8620659 26.8702589,14.9570486 26.8702589,15.0654655 C26.8702589,15.1738823 26.9425123,15.268865 27.0466135,15.2972973 C27.2094705,15.3671573 27.3861457,15.3983946 27.5629482,15.3885886 C27.7362322,15.3991148 27.9096081,15.3695262 28.0697211,15.3021021 C28.1665171,15.2646106 28.2321496,15.1732076 28.2370518,15.0690691 C28.2338269,14.9622935 28.16751,14.8677562 28.0685259,14.8288288 C27.906396,14.7613349 27.7307884,14.732949 27.5557769,14.7459459 L27.5557769,14.7435435 Z" id="Shape" fill="#FFFFFF"></path>
                <path d="M27.2223108,16.3483483 L27.5533865,16.3831832 L27.5007968,16.8876877 L26.7179283,16.8048048 C26.6373388,16.7401792 26.5723658,16.6580431 26.5278884,16.5645646 C26.4788067,16.4751863 26.4571791,16.3731951 26.4657371,16.2714715 C26.4772984,16.1527341 26.5358741,16.0436537 26.6282869,15.9687688 C26.7415887,15.8797925 26.876551,15.8229657 27.0191235,15.8042042 C27.1945903,15.7755169 27.3731357,15.7710714 27.5498008,15.790991 C27.7349908,15.807233 27.9164891,15.852632 28.0876494,15.9255255 C28.2239299,15.9785841 28.3427419,16.0688672 28.4306773,16.1861862 C28.4884862,16.2703497 28.5131861,16.3730679 28.5,16.4744745 C28.4918888,16.6056367 28.4216512,16.7249233 28.3111554,16.7951952 C28.1770422,16.8721848 28.0245206,16.9108175 27.8701195,16.9069069 L27.8211155,16.6666667 C27.905352,16.6650333 27.9877223,16.6414403 28.0601594,16.5981982 C28.1176318,16.5644785 28.1554427,16.5050194 28.161753,16.4384384 C28.1701058,16.3311778 28.1154701,16.2288683 28.0219124,16.1765766 C27.8762462,16.0912943 27.7122252,16.0426659 27.5438247,16.0348348 C27.3653659,16.005051 27.18246,16.017388 27.0095618,16.0708709 C26.9047682,16.09848 26.8260393,16.1856093 26.8087649,16.2930931 C26.804591,16.3461562 26.8162419,16.399266 26.8422311,16.4456456 C26.869329,16.4976522 26.9048775,16.5447463 26.9474104,16.584985 L27.1972112,16.6114114 L27.2223108,16.3483483 Z" id="Shape" fill="#FFFFFF"></path>
                <polygon id="Shape" fill="#FFFFFF" points="26.3605578 17.2132132 27.1756972 17.378979 28.3816733 17.187988 28.3278884 17.4582583 27.5067729 17.5723724 28.2239044 17.9915916 28.1701195 18.2570571 27.1302789 17.6084084 26.3175299 17.4426426"></polygon>
                <path d="M3.08844622,17.6312312 L3.15537849,17.3801802 C3.32675534,17.3577148 3.50099525,17.3770801 3.66334661,17.4366366 C3.77699783,17.4827849 3.86094452,17.5819608 3.88804781,17.7021021 C3.91972508,17.8689666 3.85209206,18.0391298 3.71474104,18.1381381 C3.51801092,18.2995859 3.28422226,18.4090131 3.03466135,18.4564565 C2.78107459,18.5311668 2.51320265,18.5427104 2.25418327,18.4900901 C2.08297256,18.4619352 1.9433051,18.337009 1.89561753,18.1693694 C1.86291156,18.024874 1.9126231,17.8740678 2.0247012,17.7777778 C2.1196582,17.6902035 2.23041565,17.6217039 2.35099602,17.575976 L2.49681275,17.7801802 C2.41449779,17.8081342 2.34051062,17.8564665 2.28167331,17.9207207 C2.23661993,17.9674442 2.2177824,18.0337055 2.2314741,18.0972973 C2.25945897,18.1887882 2.33881355,18.2548548 2.43346614,18.2654655 C2.60657386,18.2892828 2.78276584,18.2749366 2.9498008,18.2234234 C3.12925329,18.1911275 3.29990388,18.121134 3.45059761,18.018018 C3.53038638,17.9662791 3.57213896,17.8719835 3.55697211,17.7777778 C3.53853861,17.712048 3.48658778,17.6612111 3.42071713,17.6444444 C3.31221277,17.6159525 3.19885137,17.6114445 3.08844622,17.6312312 Z" id="Shape" fill="#FFFFFF"></path>
                <polygon id="Shape" fill="#FFFFFF" points="3.72191235 17.1183183 1.76414343 17.3957958 1.73187251 17.1615616 2.50278884 17.0534535 2.43824701 16.5957958 1.66733068 16.7051051 1.63505976 16.4720721 3.59163347 16.1945946 3.6250996 16.4276276 2.76932271 16.5477477 2.83266932 17.0054054 3.68844622 16.8852853"></polygon>
                <path d="M3.53067729,14.9813814 L3.54143426,15.2372372 L3.09800797,15.3573574 L3.11832669,15.8222222 L3.57131474,15.8990991 L3.58207171,16.1489489 L1.587251,15.7825826 L1.57649402,15.5339339 L3.53067729,14.9813814 Z M2.76812749,15.4498498 L2.04262948,15.6432432 L2.78247012,15.7633634 L2.76812749,15.4498498 Z" id="Shape" fill="#FFFFFF"></path>
                <polygon id="Shape" fill="#FFFFFF" points="3.53545817 14.9309309 1.56215139 14.83003 1.57410359 14.6006006 2.91633466 14.1921922 1.60159363 14.1237237 1.6123506 13.9051051 3.58685259 14.0072072 3.5749004 14.2474474 2.26015936 14.6510511 3.54741036 14.7171171"></polygon>
                <path d="M2.95816733,13.193994 L2.62948207,13.1435435 L2.70478088,12.6426426 L3.48286853,12.7627628 C3.55969988,12.8284119 3.62095489,12.910494 3.66215139,13.003003 C3.70780653,13.0942669 3.72489097,13.1972866 3.71115538,13.2984985 C3.69433387,13.4166713 3.63104042,13.5231211 3.53545817,13.593994 C3.41832243,13.6779377 3.28082152,13.7285655 3.1374502,13.7405405 C2.96089974,13.7613757 2.78233822,13.7577381 2.60677291,13.7297297 C2.42300793,13.7051038 2.24405674,13.6524459 2.07609562,13.5735736 C1.94235953,13.5141519 1.82772214,13.4184892 1.74501992,13.2972973 C1.69032425,13.2110532 1.6702465,13.1071567 1.68884462,13.0066066 C1.70252788,12.8756744 1.77817461,12.7594003 1.89203187,12.6942943 C2.02924474,12.6238632 2.18294815,12.5923043 2.33665339,12.603003 L2.37609562,12.8432432 C2.29293813,12.8413681 2.21067419,12.8607969 2.13705179,12.8996997 C2.07856587,12.9318751 2.03834951,12.9896146 2.02828685,13.0558559 C2.01417074,13.1615818 2.06214927,13.2659776 2.15139442,13.3237237 C2.29503929,13.4168988 2.45916036,13.4733916 2.62948207,13.4882883 C2.80653956,13.5254248 2.9897079,13.5213157 3.16494024,13.4762763 C3.27039862,13.4532778 3.35241951,13.3699044 3.37410359,13.2636637 C3.38141348,13.2105233 3.37223088,13.1564104 3.34780876,13.1087087 C3.32344895,13.0551623 3.28986475,13.0063638 3.24860558,12.9645646 L3.00119522,12.9273273 L2.95816733,13.193994 Z" id="Shape" fill="#FFFFFF"></path>
                <path d="M3.14581673,12.5693694 L3.16494024,12.3387387 C3.26407569,12.358665 3.36650992,12.3545471 3.46374502,12.3267267 C3.52650846,12.3024897 3.5741778,12.2498612 3.59230697,12.1847901 C3.61043614,12.119719 3.5968912,12.0498647 3.55577689,11.9963964 C3.51042239,11.9446535 3.45033891,11.9081714 3.38366534,11.8918919 C3.34435787,11.882628 3.30345089,11.882628 3.26414343,11.8918919 C3.22419765,11.9014808 3.18799797,11.9228075 3.16015936,11.9531532 C3.13864542,11.975976 3.09442231,12.03003 3.0310757,12.1153153 C2.96891646,12.208809 2.88081014,12.2819023 2.77768924,12.3255255 C2.64440559,12.3689993 2.50124496,12.3715088 2.36653386,12.3327327 C2.27222994,12.3094299 2.18306323,12.2686967 2.10358566,12.2126126 C2.0333379,12.1662572 1.97808853,12.1002942 1.94462151,12.0228228 C1.9154772,11.9459777 1.91170574,11.8617479 1.93386454,11.7825826 C1.95813404,11.6528304 2.04915684,11.5458007 2.17290837,11.5015015 C2.31921474,11.4551149 2.47580493,11.4526103 2.62350598,11.4942943 L2.58286853,11.7261261 C2.50710422,11.7100616 2.42850722,11.7137836 2.35458167,11.7369369 C2.30195466,11.7603658 2.26433558,11.8085251 2.25418327,11.8654655 C2.23636624,11.9247967 2.24792153,11.9891155 2.28525896,12.0384384 C2.31306585,12.0727425 2.35198907,12.0961283 2.39521912,12.1045045 C2.4342015,12.1162581 2.47575866,12.1162581 2.51474104,12.1045045 C2.58903306,12.0617252 2.6511708,12.0005172 2.69521912,11.9267267 C2.74964005,11.8452854 2.81708317,11.773446 2.89482072,11.7141141 C2.96288857,11.6708293 3.04042132,11.6448557 3.12071713,11.6384384 C3.22729471,11.6305986 3.33442106,11.6411617 3.4374502,11.6696697 C3.54287641,11.6951574 3.64287707,11.7395081 3.73266932,11.8006006 C3.81070057,11.8500006 3.87196855,11.9220472 3.90836653,12.0072072 C3.93877417,12.0921616 3.94211599,12.1845218 3.91792829,12.2714715 C3.89065452,12.4046397 3.79581305,12.5136376 3.66812749,12.5585586 C3.4979466,12.6079137 3.31787528,12.6116409 3.14581673,12.5693694 Z" id="Shape" fill="#FFFFFF"></path>
                <polygon id="Shape" fill="#FFFFFF" points="4.0314741 11.6912913 2.16573705 11.0378378 2.24223108 10.8108108 2.97729084 11.0678679 3.12788845 10.6318318 2.39043825 10.3795796 2.46812749 10.1573574 4.33625498 10.8108108 4.25976096 11.0342342 3.44342629 10.7483483 3.29282869 11.1831832 4.10916335 11.4678679"></polygon>
                <path d="M4.83227092,9.7009009 L4.72709163,9.93393393 L4.27649402,9.83903904 L4.08286853,10.2630631 L4.45219124,10.5381381 L4.34820717,10.7651652 L2.73944223,9.52552553 L2.84223108,9.2996997 L4.83227092,9.7009009 Z M3.94422311,9.76816817 L3.20916335,9.60960961 L3.80677291,10.0588589 L3.94422311,9.76816817 Z" id="Shape" fill="#FFFFFF"></path>
                <path d="M3.58565737,7.91231231 L3.70517928,7.71651652 L4.59681275,8.31711712 C4.73784861,8.41161161 4.8310757,8.47047047 4.87649402,8.49369369 C4.93823225,8.52796517 5.00798502,8.54497213 5.07848606,8.54294294 C5.13888791,8.53888012 5.19362951,8.50578132 5.22549801,8.45405405 C5.26397355,8.40811226 5.27658031,8.34566797 5.25896414,8.28828829 C5.23633983,8.23123732 5.19925496,8.18112922 5.15139442,8.14294294 C5.09880478,8.0996997 5.00677291,8.03363363 4.87768924,7.94714715 L3.96693227,7.33693694 L4.09721116,7.14114114 L4.96135458,7.72012012 C5.10290578,7.81086714 5.23899939,7.9099386 5.3689243,8.01681682 C5.43531422,8.07210539 5.49189334,8.13830935 5.53625498,8.21261261 C5.57251598,8.27466397 5.59265634,8.34488842 5.59482072,8.41681682 C5.59388615,8.49612463 5.56794037,8.57308981 5.52071713,8.63663664 C5.47701692,8.71482003 5.40899499,8.77643058 5.32709163,8.81201201 C5.2570879,8.83555744 5.18245662,8.84173916 5.10956175,8.83003003 C5.03356406,8.8194121 4.9597322,8.79670566 4.89083665,8.76276276 C4.74266116,8.68518111 4.59936382,8.59853169 4.46175299,8.5033033 L3.58565737,7.91231231 Z" id="Shape" fill="#FFFFFF"></path>
                <polygon id="Shape" fill="#FFFFFF" points="5.8374502 8.1021021 4.30278884 6.84684685 4.44621514 6.66906907 5.77051793 7.13513514 4.74621514 6.29429429 4.88486056 6.12612613 6.41832669 7.38378378 6.27011952 7.56756757 4.97450199 7.11591592 5.97609562 7.92792793"></polygon>
                <polygon id="Shape" fill="#FFFFFF" points="6.54262948 7.25765766 5.09282869 5.90750751 5.25896414 5.73453453 6.70159363 7.08708709"></polygon>
                <polygon id="Shape" fill="#FFFFFF" points="7.02071713 6.75915916 5.35697211 5.60960961 5.54103586 5.43303303 6.7625498 6.29309309 5.95936255 5.03183183 6.13984064 4.86006006 7.20239044 6.58498498"></polygon>
                <polygon id="Shape" fill="#FFFFFF" points="7.53944223 6.27147147 6.30717131 4.71951952 6.98007968 4.18018018 7.18804781 4.44444444 6.69920319 4.83723724 6.97171315 5.18198198 7.42709163 4.82162162 7.63505976 5.08228228 7.17968127 5.44264264 7.51553785 5.86426426 8.02231076 5.45825826 8.23027888 5.72012012"></polygon>
                <path d="M8.32828685,5.64564565 L7.24302789,3.98678679 L7.64940239,3.71411411 C7.72384922,3.6569551 7.81216603,3.6208709 7.90517928,3.60960961 C7.98444036,3.61339171 8.06034579,3.64289433 8.12151394,3.69369369 C8.2068407,3.75995781 8.27935446,3.84138429 8.33545817,3.93393393 C8.40935329,4.03767098 8.456572,4.1581655 8.47290837,4.28468468 C8.48688048,4.38618238 8.45536422,4.48868298 8.38685259,4.56456456 C8.45514573,4.57833675 8.52114442,4.60179457 8.58286853,4.63423423 C8.68243187,4.69346076 8.77823427,4.75885222 8.86972112,4.83003003 L9.20318725,5.07027027 L8.96414343,5.22402402 L8.58645418,4.95735736 C8.50204021,4.89414119 8.41426062,4.8355959 8.32350598,4.78198198 C8.29209175,4.76276235 8.25627811,4.75200586 8.21952191,4.75075075 C8.17909674,4.75656778 8.14082841,4.77269611 8.10836653,4.7975976 L8.0689243,4.82402402 L8.52191235,5.51711712 L8.32828685,5.64564565 Z M7.89800797,4.56456456 L8.04262948,4.46966967 C8.10611908,4.43288382 8.16143908,4.38341895 8.20517928,4.32432432 C8.22016583,4.29076425 8.22353224,4.25312551 8.21474104,4.21741742 C8.20189615,4.16967896 8.18086378,4.12455825 8.15258964,4.08408408 C8.1223559,4.03543091 8.0814786,3.99434903 8.03306773,3.96396396 C7.99738633,3.94152713 7.95374929,3.93582592 7.91354582,3.94834835 C7.86227975,3.97402374 7.81312151,4.00374663 7.76653386,4.03723724 L7.61354582,4.13813814 L7.89800797,4.56456456 Z" id="Shape" fill="#FFFFFF"></path>
                <path d="M8.89123506,4.50930931 L9.07410359,4.36756757 C9.12613956,4.45468795 9.19777835,4.52833095 9.28326693,4.58258258 C9.34305783,4.61616756 9.41590631,4.61616756 9.47569721,4.58258258 C9.53695602,4.55477754 9.57948355,4.49703255 9.58804781,4.43003003 C9.59606748,4.36182032 9.58225177,4.29281679 9.54860558,4.23303303 C9.53025863,4.19618964 9.5036668,4.16411973 9.47091633,4.13933934 C9.43578773,4.11509906 9.3939988,4.10249963 9.35139442,4.1033033 C9.28271056,4.10381265 9.21409657,4.1078218 9.14581673,4.11531532 C9.03510951,4.13282577 8.92172133,4.11606758 8.82071713,4.06726727 C8.69884879,3.99732533 8.60060695,3.89231634 8.53864542,3.76576577 C8.49249832,3.68078573 8.46250474,3.58791057 8.4501992,3.49189189 C8.43688295,3.40727175 8.44938404,3.32058248 8.48605578,3.24324324 C8.58879496,3.05002481 8.82372284,2.97097223 9.02151394,3.06306306 C9.15346426,3.14109188 9.26014135,3.25581183 9.32868526,3.39339339 L9.13027888,3.52072072 C9.09204715,3.45549148 9.03770321,3.4012893 8.97250996,3.36336336 C8.92036376,3.33932859 8.85966554,3.34339539 8.81115538,3.37417417 C8.75483057,3.40020654 8.71468109,3.45221376 8.70358566,3.51351351 C8.69605423,3.55562611 8.7036805,3.59905793 8.7250996,3.63603604 C8.74409945,3.67449278 8.77461276,3.70599898 8.8123506,3.72612613 C8.89388447,3.75209286 8.98060432,3.75704947 9.06454183,3.74054054 C9.16063862,3.7267045 9.25833873,3.7287332 9.35378486,3.74654655 C9.43184189,3.76888422 9.50325254,3.81013023 9.56175299,3.86666667 C9.71712944,4.01855387 9.81907969,4.21715017 9.85219124,4.43243243 C9.86819367,4.52357625 9.85609984,4.61745822 9.81752988,4.7015015 C9.77603996,4.78127516 9.71030096,4.84565993 9.62988048,4.88528529 C9.51321533,4.95489804 9.36858591,4.95718347 9.2498008,4.89129129 C9.0990786,4.7976917 8.97543815,4.66597686 8.89123506,4.50930931 Z" id="Shape" fill="#FFFFFF"></path>
                <polygon id="Shape" fill="#FFFFFF" points="10.1438247 4.58498498 9.31912351 2.78318318 9.53187251 2.68468468 10.3565737 4.48648649"></polygon>
                <polygon id="Shape" fill="#FFFFFF" points="10.7486056 4.32432432 10.150996 2.78798799 9.82948207 2.90810811 9.70996016 2.5957958 10.5681275 2.25705706 10.6876494 2.56936937 10.3673307 2.6954955 10.9649402 4.23183183"></polygon>
                <polygon id="Shape" fill="#FFFFFF" points="11.650996 3.9951952 11.4119522 3.19399399 10.6768924 2.21501502 10.9398406 2.13573574 11.4262948 2.80960961 11.4573705 1.97957958 11.7131474 1.9015015 11.6330677 3.12912913 11.8721116 3.92792793"></polygon>
                <path d="M12.9083665,2.67027027 C12.882826,2.50089756 12.8788098,2.32894913 12.8964143,2.15855856 C12.9078181,2.0609183 12.9319285,1.96520543 12.9681275,1.87387387 C12.9960488,1.80194121 13.0383549,1.73652908 13.0924303,1.68168168 C13.1580787,1.61996179 13.2420452,1.58156582 13.3314741,1.57237237 C13.5082569,1.5531401 13.6803022,1.63772401 13.7737052,1.78978979 C13.9169228,2.0080744 14.0024789,2.25941332 14.0223108,2.52012012 C14.0687472,2.77621946 14.0494125,3.03999067 13.9661355,3.28648649 C13.9178021,3.45907792 13.7717429,3.58609159 13.5948477,3.60935994 C13.4179524,3.63262828 13.2442881,3.54767021 13.1533865,3.39339339 C13.0115348,3.17737234 12.9271745,2.92840128 12.9083665,2.67027027 Z M13.1474104,2.62582583 C13.160095,2.80071077 13.2133051,2.9701898 13.3027888,3.12072072 C13.3511201,3.21391008 13.4494029,3.26988241 13.5537849,3.26366366 C13.647012,3.25165165 13.7151394,3.18558559 13.7605578,3.06306306 C13.808234,2.89176817 13.8160047,2.71173756 13.7832669,2.53693694 C13.7691653,2.36198961 13.7151819,2.1926525 13.625498,2.04204204 C13.5859965,1.93773995 13.4802269,1.87451139 13.3701751,1.88941123 C13.2601232,1.90431107 13.1747729,1.99341521 13.1641434,2.1045045 C13.1182899,2.27460407 13.1125603,2.45310989 13.1474104,2.62582583 Z" id="Shape" fill="#FFFFFF"></path>
                <polygon id="Shape" fill="#FFFFFF" points="14.2517928 3.4978979 14.1788845 1.51351351 14.9749004 1.48348348 14.9868526 1.81981982 14.4262948 1.84024024 14.4430279 2.30990991 14.9211155 2.29189189 14.9330677 2.62822823 14.4549801 2.64624625 14.4860558 3.48708709"></polygon>
                <path d="M15.9836653,2.85645646 L16.2143426,2.84564565 C16.2071873,2.94704357 16.2239784,3.0487056 16.2633466,3.14234234 C16.2944278,3.20251261 16.3523362,3.24405233 16.4190579,3.25403934 C16.4857795,3.26402634 16.5532194,3.24124897 16.6003984,3.19279279 C16.6451079,3.14129037 16.6726878,3.07703521 16.6792829,3.00900901 C16.6851728,2.96875739 16.6819035,2.92768749 16.6697211,2.88888889 C16.6548368,2.85062521 16.6290619,2.81761863 16.5956175,2.79399399 C16.5388951,2.755016 16.4802551,2.71893425 16.4199203,2.68588589 C16.3199409,2.63522015 16.2368592,2.55631501 16.1808765,2.45885886 C16.1217599,2.33149066 16.1009874,2.18953062 16.1211155,2.05045045 C16.1314728,1.95389098 16.1598573,1.86016083 16.2047809,1.77417417 C16.2416765,1.69684363 16.3007957,1.6324075 16.374502,1.58918919 C16.447412,1.54912935 16.5314323,1.53435222 16.6135458,1.54714715 C16.7443776,1.55467256 16.8613649,1.63152956 16.9207171,1.74894895 C16.9853758,1.88873835 17.007816,2.04451801 16.985259,2.196997 L16.7462151,2.18618619 C16.7525118,2.10887853 16.7393593,2.03122095 16.7079681,1.96036036 C16.6783467,1.9105253 16.625827,1.87894596 16.5681275,1.87627628 C16.5071398,1.8658367 16.4448771,1.88550291 16.4007968,1.92912913 C16.3699602,1.96172837 16.3517324,2.0043308 16.3494024,2.04924925 C16.3436988,2.09043689 16.3507952,2.1323897 16.3697211,2.16936937 C16.4215715,2.23782062 16.4898298,2.2919567 16.5681275,2.32672673 C16.6569464,2.36990919 16.7377866,2.42799926 16.8071713,2.4984985 C16.858355,2.56083853 16.894003,2.63455033 16.9111554,2.71351351 C16.9324218,2.81871946 16.9352531,2.92684859 16.9195219,3.03303303 C16.9083753,3.14158881 16.8771634,3.24709958 16.82749,3.34414414 C16.789017,3.42858335 16.7255787,3.49905031 16.6458167,3.54594595 C16.5663382,3.5870089 16.4759635,3.60172624 16.3876494,3.58798799 C16.2524079,3.57833429 16.1323592,3.49744426 16.0721116,3.37537538 C15.9977295,3.21323108 15.9672212,3.03423681 15.9836653,2.85645646 Z" id="Shape" fill="#FFFFFF"></path>
                <path d="M17.8410359,3.06786787 L18.038247,3.23603604 C17.9848473,3.40130348 17.8921254,3.55097827 17.7681275,3.67207207 C17.6784584,3.75537395 17.5539801,3.78945173 17.4346614,3.76336336 C17.2721271,3.71960042 17.1489758,3.58602471 17.1179283,3.41981982 C17.0580568,3.17171301 17.0601097,2.91258275 17.1239044,2.66546547 C17.1657604,2.40391735 17.2703683,2.15654922 17.4286853,1.94474474 C17.5273157,1.80195875 17.6992195,1.72938846 17.8697211,1.75855856 C18.0135815,1.79022852 18.1281571,1.89936581 18.1673307,2.04204204 C18.2047272,2.16606609 18.2185139,2.29606577 18.2079681,2.42522523 L17.961753,2.46966967 C17.9717282,2.38241957 17.9598122,2.29404787 17.9270916,2.21261261 C17.9046362,2.15211058 17.8534498,2.10698554 17.7908367,2.09249249 C17.6960793,2.07821657 17.6019957,2.12218439 17.5517928,2.2042042 C17.4561085,2.35105724 17.393306,2.5170461 17.3677291,2.69069069 C17.3191504,2.86656545 17.3081526,3.05078063 17.3354582,3.23123123 C17.3653386,3.35135135 17.4215139,3.41261261 17.5039841,3.43063063 C17.5707528,3.44137117 17.6382599,3.41632769 17.6820717,3.36456456 C17.755696,3.27832092 17.80992,3.17711524 17.8410359,3.06786787 Z" id="Shape" fill="#FFFFFF"></path>
                <polygon id="Shape" fill="#FFFFFF" points="18.0370518 3.87387387 18.5701195 1.96036036 18.7948207 2.02402402 18.2629482 3.93633634"></polygon>
                <polygon id="Shape" fill="#FFFFFF" points="18.4195219 3.97597598 19.0661355 2.0996997 19.8800797 2.38198198 19.7701195 2.7003003 19.1784861 2.49369369 19.0350598 2.91051051 19.5860558 3.1015015 19.4820717 3.41861862 18.9322709 3.22642643 18.7553785 3.73693694 19.3625498 3.95075075 19.2537849 4.26666667"></polygon>
                <polygon id="Shape" fill="#FFFFFF" points="19.3685259 4.31231231 20.1812749 2.5021021 20.389243 2.5957958 20.2792829 4.0012012 20.8231076 2.79279279 21.0215139 2.88288288 20.2075697 4.69309309 19.9936255 4.5957958 20.0976096 3.22162162 19.5669323 4.4024024"></polygon>
                <path d="M21.3609562,4.5033033 L21.4972112,4.72312312 C21.3965895,4.86444517 21.2632758,4.9790504 21.1087649,5.05705706 C20.9978023,5.10848156 20.8688438,5.10220316 20.7633466,5.04024024 C20.6217596,4.9489357 20.5450255,4.78394953 20.5661355,4.61621622 C20.584777,4.35970292 20.666951,4.11194702 20.8051793,3.8954955 C20.9245448,3.65846143 21.099748,3.45434053 21.3155378,3.3009009 C21.4529174,3.19413332 21.6394848,3.17725822 21.7936255,3.25765766 C21.9191697,3.33301222 21.9938543,3.47115659 21.9884462,3.61801802 C21.9861862,3.7471248 21.9598335,3.87465816 21.910757,3.99399399 L21.6561753,3.96396396 C21.6929764,3.88445604 21.7086256,3.79671343 21.7015936,3.70930931 C21.6985541,3.64452002 21.6635944,3.58551174 21.6083665,3.55195195 C21.5226184,3.5098979 21.420199,3.52311852 21.3478088,3.58558559 C21.2123511,3.69593539 21.1022615,3.83444109 21.0250996,3.99159159 C20.9254366,4.14448475 20.8590461,4.31681783 20.8302789,4.4972973 C20.8136211,4.58999831 20.8524085,4.68392976 20.9294821,4.73753754 C20.9898213,4.76884274 21.0621535,4.76564237 21.1195219,4.72912913 C21.215359,4.67236257 21.2977459,4.59530186 21.3609562,4.5033033 Z" id="Shape" fill="#FFFFFF"></path>
                <polygon id="Shape" fill="#FFFFFF" points="21.3023904 5.32132132 22.4330677 3.69249249 23.1394422 4.18738739 22.9482072 4.46246246 22.4342629 4.1021021 22.1832669 4.46246246 22.6613546 4.7975976 22.4701195 5.07267267 21.9920319 4.73873874 21.6836653 5.18198198 22.2155378 5.55435435 22.025498 5.82822823"></polygon>
                <path d="M23.6450199,6.96696697 L23.3438247,7.08708709 C23.335753,6.98806312 23.3430106,6.88838006 23.3653386,6.79159159 C23.2941912,6.80933714 23.2202311,6.8126044 23.1478088,6.8012012 C23.0827427,6.78727937 23.023256,6.7542516 22.9768924,6.70630631 C22.8737922,6.60990591 22.8384389,6.46067896 22.887251,6.32792793 C22.9249252,6.2048551 22.9922569,6.09303665 23.0832669,6.0024024 C23.1635366,5.91655959 23.2608583,5.84862549 23.3689243,5.803003 C23.4722082,5.76050292 23.5839368,5.74281658 23.6952191,5.75135135 C23.7196502,5.67290774 23.7512593,5.59690735 23.7896414,5.52432432 C23.8216649,5.46268769 23.8618733,5.40571002 23.9091633,5.35495495 C23.9816709,5.2747872 24.0767053,5.2186541 24.1816733,5.19399399 C24.2757626,5.17270765 24.3740845,5.20230632 24.4410359,5.27207207 C24.5115334,5.33818789 24.5412088,5.43729522 24.5187251,5.53153153 C24.4941953,5.64205061 24.4376313,5.74278704 24.3561753,5.82102102 C24.3025676,5.87759906 24.2389295,5.9236315 24.1685259,5.95675676 C24.0754427,5.99290407 23.9766758,6.01202407 23.8768924,6.01321321 L23.7394422,6.38798799 C23.8070269,6.35104718 23.8713976,6.30845437 23.9318725,6.26066066 L24.0239044,6.45045045 C23.9243028,6.52332332 23.8501992,6.57497497 23.8015936,6.60540541 C23.75911,6.63148304 23.714766,6.65436825 23.6689243,6.67387387 C23.6583712,6.72701596 23.6511855,6.78077772 23.6474104,6.83483483 C23.6423611,6.87869738 23.6415606,6.92294895 23.6450199,6.96696697 Z M23.6091633,6.00600601 C23.5427731,6.00179757 23.4763525,6.01374719 23.4155378,6.04084084 C23.3556158,6.06641611 23.3015224,6.10402138 23.2565737,6.15135135 C23.2059011,6.19947705 23.169142,6.26049549 23.1501992,6.32792793 C23.1344269,6.37915155 23.1487659,6.4349351 23.187251,6.47207207 C23.2136854,6.49752008 23.2476937,6.51355445 23.2840637,6.51771772 C23.3364325,6.52284062 23.3892781,6.51959726 23.4406375,6.50810811 L23.6091633,6.00600601 Z M23.9581673,5.76576577 L24.0549801,5.75135135 C24.118807,5.74482901 24.178591,5.71690298 24.2247012,5.67207207 C24.255927,5.6416229 24.2778964,5.60287981 24.2880478,5.56036036 C24.2974481,5.52553541 24.2873915,5.48832367 24.261753,5.46306306 C24.2380033,5.43832335 24.20268,5.42864151 24.1697211,5.43783784 C24.1334689,5.4456791 24.1005,5.46455286 24.0752988,5.49189189 C24.0365932,5.5374099 24.008789,5.59124193 23.9940239,5.64924925 L23.9581673,5.76576577 Z" id="Shape" fill="#FFFFFF"></path>
                <polygon id="Shape" fill="#FFFFFF" points="24.1948207 8.01201201 25.5095618 7.02222222 25.3027888 6.74594595 25.5705179 6.54414414 26.1239044 7.28648649 25.8561753 7.48828829 25.6505976 7.20720721 24.3358566 8.196997"></polygon>
                <polygon id="Shape" fill="#FFFFFF" points="24.5844622 8.54294294 26.2577689 7.49069069 26.7143426 8.22342342 26.4334661 8.40840841 26.1011952 7.87387387 25.7294821 8.11411411 26.0378486 8.61021021 25.7557769 8.78798799 25.4474104 8.29069069 24.9908367 8.57777778 25.3350598 9.13033033 25.0517928 9.30690691"></polygon>
                <path d="M26.0952191,9.73813814 L26.0880478,9.9975976 C25.9264605,10.0585841 25.7526432,10.079596 25.5812749,10.0588589 C25.4594776,10.0397542 25.3548628,9.96157428 25.3015936,9.84984985 C25.2338332,9.69518529 25.2608242,9.51512447 25.3709163,9.38738739 C25.5251638,9.18466107 25.7278406,9.02435233 25.9601594,8.92132132 C26.1889196,8.78877478 26.4468157,8.71531096 26.710757,8.70750751 C26.8840723,8.69672039 27.0479924,8.78751486 27.1314741,8.94054054 C27.1946511,9.07262839 27.1808939,9.22886312 27.0956175,9.34774775 C27.0235293,9.45504569 26.9313836,9.54724461 26.8243028,9.61921922 L26.6354582,9.45465465 C26.7092777,9.40789436 26.770454,9.34352341 26.8135458,9.26726727 C26.8463704,9.21159092 26.8495063,9.14315739 26.8219124,9.08468468 C26.7740251,8.9994371 26.6794593,8.95191755 26.5828685,8.96456456 C26.4103606,8.98319779 26.2439574,9.03935305 26.0952191,9.12912913 C25.9279239,9.20078627 25.7776172,9.30722351 25.6541833,9.44144144 C25.5887626,9.50987837 25.5695603,9.61060662 25.6051793,9.6984985 C25.6385355,9.75760086 25.7001508,9.79493718 25.7677291,9.796997 C25.8798302,9.80122175 25.9915229,9.78114754 26.0952191,9.73813814 Z" id="Shape" fill="#FFFFFF"></path>
                <polygon id="Shape" fill="#FFFFFF" points="25.598008 10.3831832 27.436255 9.66246246 27.5223108 9.88228228 26.798008 10.1681682 26.9665339 10.596997 27.6908367 10.3111111 27.7756972 10.5309309 25.9374502 11.2516517 25.8513944 11.0318318 26.6533865 10.7147147 26.4848606 10.2846847 25.6804781 10.603003"></polygon>
                <polygon id="Shape" fill="#FFFFFF" points="25.9912351 11.4114114 27.8904382 10.8624625 27.9537849 11.0822823 26.8159363 11.9087087 28.0876494 11.5399399 28.1474104 11.7501502 26.2482072 12.3003003 26.1824701 12.0732733 27.2916335 11.2624625 26.0533865 11.6228228"></polygon>
                <path d="M27.2378486,12.2366366 C27.4049068,12.2025342 27.5755609,12.1896206 27.7458167,12.1981982 C27.8432343,12.2040211 27.9393736,12.223426 28.0314741,12.2558559 C28.1068649,12.2802799 28.1758756,12.321319 28.2334661,12.375976 C28.2965356,12.4392094 28.33833,12.5206964 28.352988,12.609009 C28.3806139,12.7855161 28.3054003,12.9623596 28.1593625,13.0642643 C27.7249648,13.3516056 27.1928613,13.448757 26.6856574,13.3333333 C26.5119181,13.2933128 26.378441,13.153384 26.3459846,12.9772423 C26.3135282,12.8011006 26.3882965,12.6224149 26.536255,12.5225225 C26.7422117,12.3689734 26.9836448,12.2705941 27.2378486,12.2366366 Z M27.2940239,12.4768769 C27.1206971,12.4989161 26.9549155,12.5614468 26.8099602,12.6594595 C26.7123293,12.7060039 26.6579083,12.812585 26.6772137,12.9194372 C26.6965192,13.0262893 26.7847499,13.1068382 26.8924303,13.1159159 C27.0646596,13.1559441 27.2437069,13.1559441 27.4159363,13.1159159 C27.5867852,13.0936406 27.7503101,13.0324228 27.8940239,12.9369369 C27.9817177,12.8820851 28.028667,12.780167 28.0135458,12.6774775 C27.9898356,12.5751385 27.9082942,12.4964859 27.8055777,12.4768769 C27.6374586,12.4373699 27.4626775,12.4361387 27.2940239,12.4732733 L27.2940239,12.4768769 Z" id="Shape" fill="#FFFFFF"></path>
                <polygon id="Shape" fill="#FFFFFF" points="26.487251 13.6384384 28.4390438 13.4618619 28.4605578 13.7021021 26.8398406 13.8486486 26.8912351 14.4312312 26.5601594 14.4612613"></polygon>
                <path d="M27.5438247,14.5033033 C27.7139433,14.4998485 27.8838145,14.5180103 28.0494024,14.5573574 C28.1442428,14.5816053 28.235473,14.6183609 28.3207171,14.6666667 C28.3902721,14.70358 28.4510318,14.7552177 28.4988048,14.818018 C28.5505136,14.8913157 28.5777181,14.9792266 28.576494,15.0690691 C28.5716691,15.2475241 28.4658392,15.4075301 28.3039841,15.4810811 C27.8241574,15.6870635 27.2814203,15.6870635 26.8015936,15.4810811 C26.6376219,15.4101117 26.5313923,15.2478931 26.5313923,15.0684685 C26.5313923,14.8890438 26.6376219,14.7268253 26.8015936,14.6558559 C27.0318882,14.5418628 27.2874899,14.4893284 27.5438247,14.5033033 Z M27.5557769,14.7435435 C27.3814361,14.7340842 27.207257,14.764903 27.0466135,14.8336336 C26.9425123,14.8620659 26.8702589,14.9570486 26.8702589,15.0654655 C26.8702589,15.1738823 26.9425123,15.268865 27.0466135,15.2972973 C27.2094705,15.3671573 27.3861457,15.3983946 27.5629482,15.3885886 C27.7362322,15.3991148 27.9096081,15.3695262 28.0697211,15.3021021 C28.1665171,15.2646106 28.2321496,15.1732076 28.2370518,15.0690691 C28.2338269,14.9622935 28.16751,14.8677562 28.0685259,14.8288288 C27.906396,14.7613349 27.7307884,14.732949 27.5557769,14.7459459 L27.5557769,14.7435435 Z" id="Shape" fill="#FFFFFF"></path>
                <path d="M27.2223108,16.3483483 L27.5533865,16.3831832 L27.5007968,16.8876877 L26.7179283,16.8048048 C26.6373388,16.7401792 26.5723658,16.6580431 26.5278884,16.5645646 C26.4788067,16.4751863 26.4571791,16.3731951 26.4657371,16.2714715 C26.4772984,16.1527341 26.5358741,16.0436537 26.6282869,15.9687688 C26.7415887,15.8797925 26.876551,15.8229657 27.0191235,15.8042042 C27.1945903,15.7755169 27.3731357,15.7710714 27.5498008,15.790991 C27.7349908,15.807233 27.9164891,15.852632 28.0876494,15.9255255 C28.2239299,15.9785841 28.3427419,16.0688672 28.4306773,16.1861862 C28.4884862,16.2703497 28.5131861,16.3730679 28.5,16.4744745 C28.4918888,16.6056367 28.4216512,16.7249233 28.3111554,16.7951952 C28.1770422,16.8721848 28.0245206,16.9108175 27.8701195,16.9069069 L27.8211155,16.6666667 C27.905352,16.6650333 27.9877223,16.6414403 28.0601594,16.5981982 C28.1176318,16.5644785 28.1554427,16.5050194 28.161753,16.4384384 C28.1701058,16.3311778 28.1154701,16.2288683 28.0219124,16.1765766 C27.8762462,16.0912943 27.7122252,16.0426659 27.5438247,16.0348348 C27.3653659,16.005051 27.18246,16.017388 27.0095618,16.0708709 C26.9047682,16.09848 26.8260393,16.1856093 26.8087649,16.2930931 C26.804591,16.3461562 26.8162419,16.399266 26.8422311,16.4456456 C26.869329,16.4976522 26.9048775,16.5447463 26.9474104,16.584985 L27.1972112,16.6114114 L27.2223108,16.3483483 Z" id="Shape" fill="#FFFFFF"></path>
                <polygon id="Shape" fill="#FFFFFF" points="26.3605578 17.2132132 27.1756972 17.378979 28.3816733 17.187988 28.3278884 17.4582583 27.5067729 17.5723724 28.2239044 17.9915916 28.1701195 18.2570571 27.1302789 17.6084084 26.3175299 17.4426426"></polygon>
                <path d="M8.43705179,24.6702703 L8.43705179,24.6630631 L8.42749004,24.6546547 L8.3187251,24.5633634 C8.3187251,24.5633634 8.3187251,24.5633634 8.30796813,24.5633634 C8.18345337,24.6007691 8.07945583,24.687506 8.01992032,24.8036036 C8.01992032,24.8036036 8.01992032,24.8036036 8.01992032,24.8036036 C7.95868522,24.8386226 7.88787416,24.8529399 7.81792829,24.8444444 C7.71752988,25.0234234 7.71035857,25.1675676 7.79521912,25.2864865 L7.80239044,25.2924925 C7.92191235,25.2756757 8.00438247,25.1867868 8.04143426,25.0246246 C8.05936255,24.966967 8.08565737,24.9417417 8.14183267,24.9465465 C8.24496469,24.9713328 8.35201782,24.9248739 8.40478088,24.8324324 L8.40478088,24.8252252 C8.41749089,24.7757678 8.42746631,24.725641 8.43466135,24.6750751" id="Shape" fill="#FFFFFF"></path>
                <path d="M21.752988,23.5555556 C21.752988,23.5555556 21.752988,23.5555556 21.752988,23.5651652 C21.7686445,23.8052184 21.8433929,24.0376028 21.9705179,24.2414414 C21.9705179,24.2414414 21.9705179,24.2414414 21.9705179,24.2498498 C21.9701557,24.3898315 21.9809472,24.5296176 22.0027888,24.6678679 L21.9956175,24.6678679 C21.9149431,24.6535825 21.835135,24.6347338 21.7565737,24.6114114 L21.7505976,24.6042042 C21.698008,24.6042042 21.6705179,24.6294294 21.6669323,24.6750751 L21.6669323,24.6822823 C21.663385,24.6995679 21.6693126,24.7174397 21.6824701,24.7291291 C21.8277321,24.8205026 21.944845,24.9506786 22.0207171,25.1051051 C21.9877275,25.1768266 21.9328927,25.2361428 21.8641434,25.2744745 C21.8603393,25.2769829 21.856742,25.2797948 21.8533865,25.2828829 C21.820303,25.326074 21.820303,25.3862383 21.8533865,25.4294294 C21.949004,25.5231231 22.0673307,25.5135135 22.2011952,25.3945946 C22.2011952,25.3945946 22.2011952,25.3945946 22.2011952,25.384985 C22.1808765,25.2948949 22.1844622,25.2432432 22.2215139,25.23003 C22.2853182,25.2489102 22.3528713,25.2154869 22.3768924,25.1531532 C22.3768924,25.1531532 22.3709163,25.1459459 22.3768924,25.1423423 C22.3948606,25.0028305 22.4628568,24.8746994 22.5681275,24.781982 L22.3290837,24.8528529 C22.3051793,24.9381381 22.2621514,24.9573574 22.1976096,24.9033033 L22.1976096,24.8960961 C22.161753,24.7387387 22.1976096,24.6966967 22.3003984,24.7615616 C22.3313606,24.7804346 22.3452425,24.8183028 22.3338645,24.8528529 L22.5729084,24.781982 C22.6195219,24.8096096 22.636255,24.8372372 22.6207171,24.8672673 C22.5686298,24.9330841 22.5438,25.0165512 22.5513944,25.1003003 L22.5513944,25.1063063 C22.4784861,25.2336336 22.4079681,25.3717718 22.3326693,25.5183183 C22.3326693,25.5183183 22.3386454,25.5255255 22.3326693,25.5279279 C22.2785325,25.8862879 22.1904838,26.2386365 22.0697211,26.5801802 C22.1493852,26.6206438 22.2434435,26.6206438 22.3231076,26.5801802 C22.3273065,26.581983 22.3320561,26.581983 22.336255,26.5801802 C22.3905717,26.5607394 22.4320521,26.5159135 22.4474104,26.4600601 C22.4474104,26.4600601 22.4474104,26.4600601 22.4474104,26.4600601 C22.4569721,26.3627628 22.4677291,26.2690691 22.4832669,26.1717718 L22.489243,26.1657658 C22.441165,25.8994307 22.4931237,25.6246404 22.6350598,25.3945946 L22.6422311,25.3885886 C22.6561889,25.1562683 22.7427743,24.9343074 22.8896414,24.7543544 C22.869158,24.87977 22.8611504,25.0069237 22.8657371,25.1339339 C22.8647707,25.1374721 22.8647707,25.1412066 22.8657371,25.1447447 C22.9709163,25.3261261 23.061753,25.4714715 23.1298805,25.5891892 C23.1482988,25.6174176 23.1686677,25.6443106 23.1908367,25.6696697 C23.2187399,25.711254 23.2274514,25.762909 23.214741,25.8114114 C23.214741,25.8114114 23.214741,25.8114114 23.214741,25.8186186 C23.1406375,25.9651652 23.0665339,26.1057057 23.001992,26.2498498 C22.9124317,26.2991254 22.8516111,26.388359 22.838247,26.4900901 C22.8942359,26.5342511 22.9630975,26.5587265 23.0342629,26.5597598 C23.040239,26.5597598 23.040239,26.5597598 23.0438247,26.5597598 C23.11463,26.5139962 23.181051,26.4617194 23.2422311,26.4036036 L23.2494024,26.4036036 C23.2778791,26.274106 23.324988,26.1494721 23.389243,26.0336336 C23.389243,26.0336336 23.389243,26.0264264 23.389243,26.024024 C23.5502489,26.0641933 23.6659124,26.2058333 23.6737052,26.3723724 C23.5745391,26.4201861 23.4657585,26.4444349 23.3557769,26.4432432 C23.3766354,26.5176879 23.428492,26.579439 23.498008,26.6126126 L23.5063745,26.6222222 C23.600659,26.6255705 23.6941821,26.6404961 23.7848606,26.6666667 C23.853914,26.6693924 23.9212804,26.6448121 23.97251,26.5981982 L23.9832669,26.5897898 C23.9995241,26.4990923 23.9847811,26.405535 23.9414343,26.3243243 C23.9414343,26.3243243 23.9414343,26.3243243 23.9414343,26.3243243 C23.7023904,26.1201201 23.5733068,25.9135135 23.5613546,25.7237237 C23.5613546,25.6912913 23.5792829,25.6672673 23.6199203,25.6504505 C23.644379,25.6280964 23.6642713,25.6011686 23.6784861,25.5711712 L23.6784861,25.563964 C23.6784861,25.563964 23.6856574,25.557958 23.6784861,25.5543544 C23.7045288,25.4717158 23.711076,25.3841197 23.6976096,25.2984985 L23.6916335,25.2912913 C23.673118,25.2203519 23.6092288,25.1709604 23.536255,25.1711712 L23.5290837,25.1771772 C23.4317623,25.2803147 23.3418924,25.3903041 23.2601594,25.5063063 C23.1925531,25.3936173 23.1608566,25.2628438 23.1693227,25.1315315 L23.1693227,25.1255255 C23.1147669,25.0748366 23.0736814,25.0112482 23.0498008,24.9405405 L23.0438247,24.9333333 C23.0774553,24.6956687 23.1672072,24.4695479 23.3055777,24.2738739 C23.3055777,24.2738739 23.3055777,24.2738739 23.3055777,24.2738739 C23.3083608,24.230686 23.3087598,24.1873764 23.3067729,24.1441441 L23.2984064,24.1333333 C23.2731173,24.0659322 23.2138112,24.0173329 23.1430279,24.006006 L23.1358566,24.012012 C23.0796813,24.1021021 23.0270916,24.1753754 22.9828685,24.2438438 L22.974502,24.2258258 C22.920612,23.8953504 22.8439332,23.5690387 22.7450199,23.2492492 L22.7354582,23.2384384 C22.6886316,23.1841772 22.6171245,23.1582512 22.5466135,23.16997 C22.5346614,23.1627628 22.5239044,23.16997 22.5155378,23.1903904 C22.460813,23.320416 22.3956581,23.445754 22.3207171,23.5651652 L22.3207171,23.5711712 C22.3050998,23.6437422 22.3010653,23.7183476 22.3087649,23.7921922 C22.3195219,23.8066066 22.3290837,23.8102102 22.3326693,23.8078078 C22.4438247,23.7681682 22.4760956,23.7645646 22.4306773,23.8078078 C22.5047809,23.7753754 22.5346614,23.7033033 22.5143426,23.593994 L22.5215139,23.587988 C22.6619435,23.7481507 22.7539921,23.9452538 22.7868526,24.1561562 L22.7868526,24.1777778 L22.7868526,24.184985 C22.8187946,24.2562552 22.839752,24.3319982 22.849004,24.4096096 C22.849004,24.4096096 22.849004,24.4096096 22.849004,24.4192192 C22.7940239,24.5189189 22.7450199,24.6102102 22.6984064,24.6834835 C22.6999008,24.6865106 22.6999008,24.6900659 22.6984064,24.6930931 C22.6548556,24.6027694 22.5800819,24.5314642 22.4880478,24.4924925 C22.4849059,24.4932569 22.4816279,24.4932569 22.4784861,24.4924925 L22.3183267,24.43003 C22.3183267,24.5369369 22.2621514,24.5621622 22.1653386,24.5105105 C22.1573497,24.4239197 22.1835337,24.3376411 22.238247,24.2702703 C22.238247,24.2702703 22.238247,24.2642643 22.238247,24.2606607 C22.2920319,24.2690691 22.3159363,24.3267267 22.3135458,24.4312312 L22.4737052,24.4936937 C22.4769134,24.3875122 22.5195513,24.2863831 22.5932271,24.2102102 C22.6508376,24.2505391 22.7299562,24.2371977 22.7713147,24.1801802 L22.7713147,24.1585586 C22.7171304,24.0346506 22.6423576,23.9209146 22.5501992,23.8222222 C22.4486056,23.8714715 22.4462151,23.9423423 22.5442231,24.0372372 L22.5442231,24.0504505 C22.4703697,23.9646427 22.3731485,23.902427 22.2645418,23.8714715 C22.2645418,23.8714715 22.2645418,23.8714715 22.2645418,23.8810811 C22.2256171,23.9679413 22.1740572,24.0485019 22.1115538,24.1201201 C22.0302738,24.0073481 22.0067882,23.8626113 22.0482072,23.7297297 L22.0422311,23.7225225 C22.0026553,23.6756289 21.9718775,23.6219053 21.9513944,23.563964 L21.9454183,23.5567568 C21.8808765,23.5567568 21.8187251,23.5567568 21.7577689,23.5567568" id="Shape" fill="#FFFFFF"></path>
                <path d="M19.4581673,25.0618619 C19.4581673,25.0618619 19.4521912,25.0618619 19.450996,25.0618619 L19.450996,25.0534535 C19.4175299,25.033033 19.3924303,25.045045 19.385259,25.0834835 C19.3848818,25.0862735 19.3848818,25.0891019 19.385259,25.0918919 C19.3891983,25.4755039 19.4422231,25.8570131 19.5430279,26.227027 C19.5537849,26.2834835 19.5705179,26.3303303 19.5836653,26.3807808 C19.6496727,26.5208474 19.6021152,26.6883887 19.47251,26.7723724 L19.4605578,26.7723724 L19.3027888,26.8468468 C19.3027888,26.8540541 19.3123506,26.8576577 19.3266932,26.8468468 L19.3350598,26.8468468 C19.2565778,26.8948829 19.1722021,26.9324363 19.0840637,26.9585586 C19.0249433,26.9686149 18.9712175,26.9992261 18.9322709,27.045045 C18.9322709,27.045045 18.9239044,27.045045 18.9322709,27.0534535 C18.9101525,27.0724761 18.8957026,27.0989578 18.8916335,27.1279279 C18.9225765,27.2118776 18.9835043,27.2812462 19.0625498,27.3225225 C19.0625498,27.3225225 19.0625498,27.3225225 19.0709163,27.3285285 C19.103816,27.3284273 19.1365133,27.3337012 19.1677291,27.3441441 C19.1737052,27.3441441 19.1737052,27.3441441 19.1760956,27.3501502 C19.2939866,27.344508 19.4061299,27.2972996 19.4928287,27.2168168 C19.4928287,27.2168168 19.4928287,27.2168168 19.5,27.2084084 C19.532748,27.1717689 19.5789134,27.1500883 19.6278884,27.1483483 L19.636255,27.1483483 C19.6614117,27.5335059 19.5750667,27.9177454 19.3876494,28.2546547 C19.3099602,28.3927928 19.2537849,28.4948949 19.2215139,28.5513514 L19.2131474,28.5513514 C19.1613267,28.5686938 19.116469,28.6024002 19.085259,28.6474474 L19.0768924,28.6474474 C19.0524885,28.6580482 19.0305183,28.6735861 19.0123506,28.6930931 C19.0195219,28.7303303 19.036255,28.7423423 19.0649402,28.7291291 L19.0768924,28.7291291 C19.4139442,28.6474474 19.625498,28.4720721 19.7091633,28.1945946 C19.8054383,27.8765389 19.8683306,27.5492309 19.8968127,27.218018 C19.9268491,26.8525523 20.0617902,26.5037051 20.285259,26.2138138 C20.3704341,26.1080554 20.3840999,25.9612416 20.3199203,25.8414414 C20.2625498,25.796997 20.2183267,25.7873874 20.1705179,25.815015 L20.1621514,25.815015 C20.1062943,25.7710661 20.0353652,25.751193 19.9649402,25.7597598 L19.9565737,25.7597598 C19.9754277,25.8587959 20.0110005,25.9538607 20.061753,26.0408408 C20.0621454,26.0436298 20.0621454,26.0464603 20.061753,26.0492492 C19.9912351,26.1477477 19.9195219,26.2426426 19.8466135,26.3375375 C19.7819945,26.0496656 19.7602436,25.7537493 19.7820717,25.4594595 C19.7820717,25.4594595 19.7820717,25.4594595 19.7820717,25.4594595 C19.7628306,25.3520915 19.7163065,25.2515432 19.647012,25.1675676 L19.647012,25.1591592 C19.5877184,25.1265493 19.5266682,25.097275 19.4641434,25.0714715" id="Shape" fill="#FFFFFF"></path>
                <path d="M17.37251,26.7567568 C17.3728871,26.7539668 17.3728871,26.7511383 17.37251,26.7483483 C17.3324864,26.6513904 17.2491386,26.57921 17.1478088,26.5537538 L17.1394422,26.5537538 C17.0705758,26.6018635 16.9916704,26.6335015 16.9087649,26.6462462 C16.9087649,26.6462462 16.9087649,26.6462462 16.9003984,26.6522523 L16.887251,26.6522523 L16.6924303,26.6858859 L16.6924303,26.6954955 C16.6924303,26.6954955 16.6924303,26.6954955 16.6840637,26.7015015 C16.6153936,26.7291052 16.5387897,26.7291052 16.4701195,26.7015015 C16.4696277,26.6987205 16.4696277,26.6958741 16.4701195,26.6930931 C16.4247668,26.6847197 16.3787791,26.6802989 16.3326693,26.6798799 L16.3231076,26.6798799 C16.2482351,26.6370932 16.153625,26.6542892 16.0984064,26.7207207 C16.1379588,26.8954742 16.2564344,27.0416442 16.4187251,27.1159159 C16.4187251,27.1159159 16.4187251,27.1159159 16.4187251,27.1243243 C16.4742813,27.1259428 16.5296929,27.1178131 16.5824701,27.1003003 C16.5824701,27.1003003 16.5824701,27.1003003 16.5908367,27.0942943 C16.6843453,26.9723666 16.8243164,26.8952802 16.9768924,26.8816817 C16.9768924,26.8816817 16.9768924,26.8900901 16.9768924,26.8912913 C16.7575309,27.2991666 16.5693393,27.7232112 16.4139442,28.1597598 C16.4139442,28.1597598 16.4043825,28.1597598 16.4055777,28.1657658 C16.3261433,28.2316312 16.2365105,28.2839758 16.140239,28.3207207 L16.1354582,28.3207207 C16.1009641,28.326324 16.0682337,28.3398929 16.0398406,28.3603604 C16.0404164,28.3651477 16.0404164,28.3699874 16.0398406,28.3747748 C16.0007515,28.3866045 15.963075,28.4027173 15.92749,28.4228228 L15.9179283,28.4228228 C15.8610596,28.450729 15.8001412,28.4693798 15.7374502,28.4780781 C15.7377298,28.4808738 15.7377298,28.4836907 15.7374502,28.4864865 L15.7243028,28.4864865 C15.6657107,28.4829251 15.6085018,28.5053087 15.5677291,28.5477477 C15.5973633,28.6647737 15.6757705,28.7632732 15.7828685,28.818018 C15.8233878,28.8348445 15.8681985,28.8382116 15.910757,28.8276276 C15.910757,28.8276276 15.910757,28.8276276 15.9203187,28.8276276 C16.1248922,28.8119356 16.3182009,28.7272837 16.4689243,28.5873874 C16.5172842,28.5357314 16.5692056,28.487564 16.6243028,28.4432432 C16.6699433,28.4281291 16.7110523,28.4016876 16.7438247,28.3663664 L16.7438247,28.3567568 C16.9387045,28.2267214 17.1100865,28.064231 17.2505976,27.8762763 C17.2604931,27.855377 17.2604931,27.8311095 17.2505976,27.8102102 C17.1717131,27.7069069 17.0796813,27.7141141 16.9804781,27.8354354 C16.9804781,27.8354354 16.9804781,27.8354354 16.9804781,27.845045 C16.9458167,27.8558559 16.914741,27.8378378 16.876494,27.8066066 C16.8769462,27.8042257 16.8769462,27.8017803 16.876494,27.7993994 C17.0387182,27.6424195 17.1478294,27.4382301 17.1884462,27.2156156 L17.1884462,27.206006 C17.3365049,27.1011133 17.4128592,26.9211313 17.3856574,26.7411411" id="Shape" fill="#FFFFFF"></path>
                <path d="M20.7968127,27.975976 C20.7968127,27.975976 20.8027888,27.975976 20.8051793,27.9831832 C21.0333248,27.9411539 21.2183432,27.7733391 21.2832669,27.5495495 C21.3191235,27.4414414 21.2749004,27.4006006 21.1565737,27.4414414 C21.1568576,27.4382446 21.1568576,27.4350287 21.1565737,27.4318318 C21.1066874,27.4490302 21.0613282,27.4773676 21.0239044,27.5147147 C21.023512,27.5175036 21.023512,27.5203342 21.0239044,27.5231231 C20.8053514,27.5853403 20.5708693,27.5118157 20.4262948,27.3357357 C20.3067729,27.2156156 20.2015936,27.1783784 20.0856574,27.2216216 C20.2430219,27.5383907 20.4905659,27.8009717 20.7968127,27.975976" id="Shape" fill="#FFFFFF"></path>
                <path d="M11.1525896,25.1267267 C11.1525896,25.1267267 11.1525896,25.1267267 11.1430279,25.1267267 C11.0966654,25.1567193 11.0561572,25.1949876 11.023506,25.2396396 C10.990287,25.3057211 10.9661617,25.3760346 10.9517928,25.4486486 L10.9517928,25.4570571 L10.9434263,25.4570571 L10.8669323,25.6204204 L10.8669323,25.6276276 C10.8673246,25.6304166 10.8673246,25.6332471 10.8669323,25.636036 C10.8343504,25.7395959 10.7842106,25.83672 10.7187251,25.9231231 L10.7103586,25.9231231 C10.5950807,25.94536 10.4809917,25.9734237 10.3685259,26.0072072 C10.3685259,26.0072072 10.3601594,26.0072072 10.3589641,26.0072072 C10.3099602,26.0144144 10.2896414,25.9807808 10.2968127,25.9015015 C10.3039841,25.8858859 10.3039841,25.8750751 10.2812749,25.8798799 C10.0139103,25.9358026 9.77283665,26.0799868 9.59641434,26.2894895 L9.58804781,26.2894895 C9.62390438,26.1237237 9.56055777,26.0324324 9.39561753,26.0168168 C9.34831831,26.1395771 9.29486339,26.2598513 9.23545817,26.3771772 C9.23583531,26.3799672 9.23583531,26.3827956 9.23545817,26.3855856 L9.15179283,26.5657658 L9.15179283,26.5777778 L9.15179283,26.5861862 C9.13633106,26.6020053 9.1219554,26.6188609 9.10876494,26.6366366 L9.10039841,26.6366366 C9.08805277,26.6718566 9.06804497,26.7038651 9.04183267,26.7303303 L9.00836653,26.8012012 L9.00239044,26.8144144 L9.00239044,26.8228228 C8.98493714,26.847008 8.96576345,26.8698907 8.94501992,26.8912913 C8.86135458,27.0114114 8.84581673,27.0942943 8.87808765,27.1651652 L8.88645418,27.1651652 C8.9749004,27.2264264 9.04422311,27.2384384 9.09681275,27.2024024 C9.09956741,27.203023 9.10242462,27.203023 9.10517928,27.2024024 C9.33321744,26.8804978 9.61032392,26.5967345 9.92629482,26.3615616 C9.92629482,26.3615616 9.92629482,26.3615616 9.92629482,26.3615616 C10.0068061,26.3935734 10.0982477,26.379329 10.1653386,26.3243243 C10.1653386,26.3243243 10.1653386,26.3243243 10.1737052,26.3243243 C10.2854766,26.2886919 10.4046202,26.2833057 10.5191235,26.3087087 L10.5119522,26.3243243 C10.40012,26.3757678 10.2812857,26.4101796 10.1593625,26.4264264 C10.1607476,26.4331621 10.1607476,26.4401112 10.1593625,26.4468468 C10.2585657,26.5141141 10.2693227,26.5345345 10.1868526,26.5057057 C10.3302789,26.5777778 10.4557769,26.6426426 10.5609562,26.7015015 C10.6764771,26.6632514 10.7689632,26.5751482 10.8131474,26.4612613 C10.812755,26.4584723 10.812755,26.4556418 10.8131474,26.4528529 C10.808337,26.3664272 10.8346416,26.281149 10.887251,26.2126126 L10.887251,26.2006006 C11.0653386,26.1561562 11.2517928,26.1021021 11.438247,26.0372372 L11.4466135,26.0372372 C11.1585657,26.3087087 10.849004,26.572973 10.5346614,26.8384384 C10.4223108,26.9285285 10.3159363,27.0258258 10.2143426,27.1255255 C9.76135458,27.3945946 9.30239044,27.6636637 8.84581673,27.9303303 C8.74745168,28.0070075 8.66570208,28.1030638 8.60557769,28.2126126 C8.59243704,28.2300949 8.58307384,28.2501424 8.57808765,28.2714715 C9.07048273,28.1019439 9.53892925,27.868971 9.97171315,27.5783784 C10.4079681,27.2804805 10.8370518,26.9633634 11.263745,26.6174174 C11.458561,26.4601961 11.6393287,26.2861603 11.8039841,26.0972973 C11.8888446,26.0108108 11.9079681,25.9279279 11.8565737,25.8570571 C11.6901598,25.7676099 11.4959573,25.745685 11.3139442,25.7957958 C11.3079681,25.7957958 11.3079681,25.7957958 11.3031873,25.7957958 C11.2768924,25.809009 11.2494024,25.8258258 11.2207171,25.8438438 L11.2207171,25.8522523 C11.1636494,25.8429782 11.1051629,25.8487733 11.050996,25.8690691 C11.050996,25.8690691 11.050996,25.8690691 11.040239,25.8690691 C11.1095618,25.7489489 11.1800797,25.6288288 11.2577689,25.4786787 C11.2611053,25.4774651 11.2637328,25.4748246 11.2649402,25.4714715 C11.2674007,25.4677207 11.2694069,25.4636882 11.2709163,25.4594595 C11.2975526,25.4153901 11.3150353,25.3663571 11.3223108,25.3153153 L11.3223108,25.3033033 C11.3370656,25.2811085 11.3419701,25.2537459 11.3358489,25.2277717 C11.3297278,25.2017975 11.3131327,25.1795524 11.2900398,25.1663664 C11.2512301,25.1351579 11.2021786,25.1197258 11.1525896,25.1231231 L11.1525896,25.1315315" id="Shape" fill="#FFFFFF"></path>
                <path d="M13.0039841,26.8852853 C13.0032756,26.8825277 13.0032756,26.8796345 13.0039841,26.8768769 C13.0840637,26.6570571 13.0207171,26.5429429 12.8187251,26.5309309 L12.8091633,26.5309309 C12.7557319,26.5454336 12.7030734,26.5626733 12.6513944,26.5825826 C12.651058,26.5857769 12.651058,26.5889979 12.6513944,26.5921922 C12.5774248,26.6167138 12.4997695,26.6280952 12.4219124,26.6258258 C12.4224967,26.6290021 12.4224967,26.6322592 12.4219124,26.6354354 C12.4080856,26.6479478 12.3949202,26.6611791 12.3824701,26.6750751 L12.3729084,26.6750751 C12.2735003,26.6921607 12.177208,26.7241488 12.087251,26.76997 C12.0811249,26.836529 12.0935398,26.9034887 12.1231076,26.9633634 C12.1231076,26.9633634 12.1231076,26.9633634 12.1314741,26.9693694 C12.2038477,27.0112143 12.287427,27.0292738 12.3705179,27.021021 L12.3800797,27.021021 C12.4721116,26.9993994 12.5079681,27.0342342 12.4996016,27.1303303 C12.4990387,27.1347166 12.4990387,27.1391573 12.4996016,27.1435435 L12.4996016,27.1531532 C12.4810551,27.3337332 12.4186708,27.5069736 12.3179283,27.6576577 C12.2508232,27.6981868 12.1682238,27.7031227 12.0968127,27.6708709 C12.0937643,27.6695338 12.0902994,27.6695338 12.087251,27.6708709 C11.9820717,27.7129129 11.8768924,27.7597598 11.776494,27.803003 C11.792769,27.8744749 11.8386376,27.935561 11.9025614,27.9708951 C11.9664853,28.0062292 12.0423804,28.0124483 12.1111554,27.987988 L12.1195219,27.987988 C12.1553785,27.9975976 12.1685259,28.0288288 12.1613546,28.0696697 C12.1613546,28.0696697 12.1613546,28.0780781 12.1613546,28.0828829 C12.1204507,28.2192466 12.0426581,28.3415098 11.9366534,28.436036 C11.9366534,28.436036 11.9366534,28.436036 11.9366534,28.4444444 C11.8390796,28.475869 11.7527042,28.535132 11.6880478,28.615015 L11.6964143,28.615015 C11.7458417,28.6574792 11.7864564,28.709318 11.8159363,28.7675676 C11.8905874,28.7923495 11.9695317,28.8013468 12.0478088,28.793994 L12.0573705,28.793994 C12.2868526,28.5165165 12.5163347,28.239039 12.747012,27.9531532 C12.8188065,27.864361 12.866564,27.7584375 12.8856574,27.6456456 C12.8928287,27.6288288 12.8856574,27.6216216 12.8533865,27.6168168 C12.6800797,27.6744745 12.6215139,27.636036 12.6729084,27.5051051 C12.6725312,27.5023151 12.6725312,27.4994867 12.6729084,27.4966967 C12.6732539,27.4935029 12.6732539,27.4902809 12.6729084,27.4870871 C12.6723595,27.4315676 12.6791928,27.3762233 12.6932271,27.3225225 C12.6926513,27.3177351 12.6926513,27.3128955 12.6932271,27.3081081 C12.7314741,27.2228228 12.7792829,27.1375375 12.8270916,27.0522523 L12.8354582,27.0522523 C12.9082013,27.002176 12.9690176,26.936543 13.0135458,26.8600601" id="Shape" fill="#FFFFFF"></path>
                <path d="M13.4318725,26.8852853 C13.4314077,26.8808933 13.4314077,26.8764641 13.4318725,26.8720721 C13.6959858,26.6695846 14.0108831,26.5448251 14.3414343,26.5117117 C14.3445627,26.5108418 14.3478675,26.5108418 14.350996,26.5117117 C14.2049068,26.7821026 14.0205115,27.029733 13.8035857,27.2468468 C13.886774,27.0925011 13.9241103,26.9173933 13.9111554,26.7423423 C13.904625,26.7381036 13.8973055,26.7352429 13.8896414,26.7339339 C13.7630696,26.7527381 13.6649445,26.8548059 13.6505976,26.9825826 C13.6425057,27.0229577 13.6108091,27.0543375 13.5705179,27.0618619 C13.4330677,27.0558559 13.3756972,27.1159159 13.4055777,27.2336336 C13.4058573,27.2364294 13.4058573,27.2392463 13.4055777,27.242042 C13.4564472,27.2771094 13.4775289,27.3421492 13.4569721,27.4006006 L13.4569721,27.4102102 C13.3826862,27.5059575 13.2939662,27.5894475 13.1940239,27.6576577 C13.1940239,27.6576577 13.1940239,27.6576577 13.1880478,27.6660661 C13.2824807,27.837597 13.2689456,28.0486762 13.1533865,28.2066066 C13.1533865,28.2066066 13.1533865,28.2066066 13.1533865,28.2066066 C13.0338645,28.1765766 12.9836653,28.2234234 12.9992032,28.3435435 L13.0087649,28.3435435 C13.0746559,28.4627085 13.0804208,28.6062148 13.0243028,28.7303303 L13.014741,28.7303303 C12.9075614,28.7913762 12.8674655,28.926582 12.9239044,29.0366366 C13.0099602,29.0798799 13.0505976,29.1099099 13.0434263,29.1231231 C13.1214448,29.1473576 13.2014349,29.1646415 13.2824701,29.1747748 L13.2956175,29.1747748 C13.343558,29.1932387 13.3954111,29.199029 13.4462151,29.1915916 L13.4593625,29.1915916 C13.5150897,29.2264426 13.583144,29.2352112 13.6458167,29.2156156 L13.6553785,29.2156156 C13.6553785,29.2156156 13.6553785,29.2156156 13.6649402,29.2156156 C13.712694,29.1789847 13.7432486,29.1241373 13.7493606,29.0640757 C13.7554727,29.0040141 13.7365981,28.9440861 13.6972112,28.8984985 C13.697871,28.8957349 13.697871,28.8928537 13.6972112,28.8900901 C13.6657253,28.8587063 13.618434,28.849676 13.5776892,28.8672673 L13.5776892,28.8756757 L13.5693227,28.8756757 C13.4744819,28.9312584 13.3595306,28.9401111 13.2573705,28.8996997 C13.2573705,28.8996997 13.2573705,28.8996997 13.2573705,28.8996997 C13.2202208,28.8310795 13.2095806,28.7510929 13.22749,28.6750751 C13.3591399,28.6071445 13.4840129,28.526697 13.6003984,28.4348348 C13.6003984,28.4348348 13.6003984,28.4348348 13.6003984,28.4348348 C13.6809047,28.365233 13.7099649,28.2527195 13.6733068,28.1525526 C13.6719763,28.1494889 13.6719763,28.1460066 13.6733068,28.1429429 C13.6092145,28.1271032 13.5432532,28.1202315 13.4772908,28.1225225 C13.4772908,28.1225225 13.4772908,28.1321321 13.4772908,28.1369369 C13.423506,28.178979 13.4091633,28.1369369 13.4175299,28 C13.5011902,27.9272554 13.5642697,27.8336127 13.6003984,27.7285285 C13.600678,27.7257328 13.600678,27.7229159 13.6003984,27.7201201 C13.776758,27.6598468 13.9393182,27.5646816 14.0784861,27.4402402 C14.0907066,27.4321379 14.1005977,27.4209547 14.1071713,27.4078078 C14.1750017,27.2290133 14.2893377,27.0717923 14.438247,26.9525526 C14.4803058,26.8849898 14.5257839,26.8196388 14.574502,26.7567568 L14.574502,26.7483483 C14.6312614,26.7302885 14.6820741,26.6970742 14.7215139,26.6522523 C14.7253536,26.6494824 14.727589,26.6449893 14.72749,26.6402402 C14.7731907,26.5655938 14.7889962,26.4762968 14.7717131,26.3903904 C14.7720587,26.3871966 14.7720587,26.3839746 14.7717131,26.3807808 C14.7524978,26.337034 14.7266978,26.2965197 14.6952191,26.2606607 C14.6952191,26.2606607 14.6952191,26.2546547 14.6952191,26.2546547 L14.6952191,26.2462462 C14.6411212,26.2231771 14.5830647,26.2109364 14.5243028,26.2102102 C14.5243028,26.2102102 14.5243028,26.2198198 14.5243028,26.2246246 L14.514741,26.2246246 C14.4430279,26.2342342 14.3139442,26.2582583 14.1203187,26.2990991 C14.1203187,26.2990991 14.1203187,26.2990991 14.1203187,26.3075075 C14.086335,26.3242175 14.0546059,26.345207 14.0258964,26.36997 C13.9450006,26.3847454 13.8651498,26.404808 13.7868526,26.43003 C13.7445958,26.4483016 13.7045058,26.4712673 13.6673307,26.4984985 C13.578046,26.57726 13.4519985,26.5982178 13.3422311,26.5525526 C13.3268426,26.5481951 13.3103506,26.5503495 13.296582,26.5585159 C13.2828134,26.5666823 13.2729652,26.5801508 13.2693227,26.5957958 C13.2123194,26.7938294 13.1408093,26.9873511 13.0553785,27.1747748 C13.0804781,27.403003 13.1749004,27.4570571 13.3338645,27.3405405 C13.3338645,27.3405405 13.3338645,27.3405405 13.3338645,27.3405405 C13.3475583,27.1901316 13.378439,27.0418074 13.4258964,26.8984985" id="Shape" fill="#FFFFFF"></path>
                <path d="M8.0940239,23.3477477 C8.0940239,23.3477477 8.08685259,23.3477477 8.08446215,23.3477477 C8.02905219,23.496705 7.98353396,23.6491918 7.94820717,23.8042042 C7.90824881,23.9744466 7.84039039,24.1368229 7.74741036,24.2846847 C7.71513944,24.3243243 7.68286853,24.3627628 7.64940239,24.4048048 L7.64103586,24.4156156 L7.57888446,24.4900901 L7.57051793,24.4996997 L7.55976096,24.4912913 L7.44741036,24.6246246 L7.43904382,24.6354354 C7.20038598,24.8477943 6.98044351,25.0804926 6.78167331,25.3309309 C6.76060697,25.3587809 6.72988749,25.3776479 6.69561753,25.3837838 C6.21338437,25.526327 5.70478756,25.5542898 5.20996016,25.4654655 C5.12397099,25.5601687 5.0829959,25.687652 5.09760956,25.815015 L5.10478088,25.821021 C5.10731156,25.8567914 5.12876204,25.8884402 5.16095618,25.9039039 C5.27450199,25.9387387 5.39163347,25.9711712 5.50398406,25.993994 C5.50398406,25.993994 5.50398406,25.993994 5.51354582,25.993994 C5.74414805,25.9752875 5.97356945,25.9440102 6.20079681,25.9003003 C6.32271962,25.8110554 6.47232725,25.7684616 6.62270916,25.7801802 C6.43579931,25.9997822 6.22124881,26.1940056 5.98446215,26.357958 L5.97609562,26.3687688 C5.90991987,26.4585182 5.90610906,26.580117 5.96653386,26.6738739 L5.97370518,26.6798799 C6.03715181,26.7044174 6.10910413,26.6850046 6.15179283,26.6318318 L6.16015936,26.621021 C6.22139938,26.6169157 6.28098343,26.5992792 6.33466135,26.5693694 C6.3396172,26.5692049 6.34413697,26.5664794 6.34661355,26.5621622 C6.48229408,26.5963211 6.62454752,26.5938347 6.75896414,26.554955 C6.75896414,26.554955 6.75896414,26.554955 6.76494024,26.554955 C6.85062365,26.6277684 6.8952938,26.7382069 6.88446215,26.8504505 C6.88446215,26.8504505 6.88446215,26.8576577 6.88446215,26.8612613 C6.77416997,26.9014964 6.66000845,26.930079 6.5438247,26.9465465 C6.75358159,27.0146068 6.96993216,27.0601068 7.18924303,27.0822823 C7.18924303,27.0822823 7.18924303,27.0822823 7.18924303,27.0822823 C7.23434536,27.0222818 7.2525357,26.9461094 7.23944223,26.8720721 C7.23944223,26.8720721 7.23944223,26.8648649 7.23944223,26.8648649 C7.18326693,26.7531532 7.13187251,26.6426426 7.08286853,26.5237237 C7.22416449,26.4842832 7.37008901,26.4640828 7.51673307,26.4636637 C7.53271222,26.3871253 7.52348287,26.30744 7.49043825,26.2366366 L7.48446215,26.2366366 C7.32494554,26.1486985 7.14645994,26.1012765 6.96454183,26.0984985 L6.96454183,26.2654655 C7.08406375,26.2546547 7.12350598,26.2654655 7.09960159,26.2822823 C7.01832669,26.357958 6.98007968,26.351952 6.96454183,26.2654655 L6.96454183,26.0984985 L6.95737052,26.0924925 C7.05854902,26.0118273 7.14787829,25.9171982 7.22270916,25.8114114 L7.22270916,25.8042042 C7.41435256,25.7878855 7.58917395,25.6877386 7.70079681,25.5303303 C7.712749,25.4798799 7.69003984,25.4426426 7.62788845,25.4318318 C7.62788845,25.4318318 7.62788845,25.4318318 7.62788845,25.4318318 C7.38884462,25.4534535 7.1749004,25.4654655 6.98486056,25.4786787 C6.97768924,25.4786787 6.97768924,25.4786787 6.97410359,25.4786787 C7.4399142,25.0058429 7.86122914,24.4907378 8.23266932,23.9399399 C8.28291116,23.8655274 8.32310278,23.7847419 8.35219124,23.6996997 C8.34262948,23.5795796 8.33665339,23.4750751 8.3247012,23.3813814 C8.3247012,23.3813814 8.3247012,23.3753754 8.3247012,23.372973 C8.2684442,23.3048584 8.16948384,23.2917721 8.09760956,23.3429429" id="Shape" fill="#FFFFFF"></path>
            </g>
        </g>
    </g>
</svg>